<svg width="55" height="55" viewBox="0 0 55 55" fill="none" xmlns="http://www.w3.org/2000/svg">
<path d="M23.6908 27.429C25.6591 27.429 27.5831 26.8454 29.2196 25.7519C30.8561 24.6584 32.1317 23.1042 32.8849 21.2857C33.6381 19.4673 33.8352 17.4664 33.4512 15.536C33.0672 13.6056 32.1194 11.8324 30.7276 10.4406C29.3359 9.04888 27.5627 8.10108 25.6323 7.7171C23.7019 7.33312 21.7009 7.53019 19.8825 8.2834C18.0641 9.03661 16.5099 10.3121 15.4164 11.9487C14.3229 13.5852 13.7393 15.5092 13.7393 17.4774C13.7424 20.1158 14.7919 22.6452 16.6575 24.5108C18.5231 26.3764 21.0525 27.4259 23.6908 27.429ZM23.6908 8.57969C25.4506 8.57969 27.1709 9.10154 28.6341 10.0792C30.0974 11.0569 31.2378 12.4466 31.9113 14.0724C32.5847 15.6983 32.7609 17.4873 32.4176 19.2133C32.0743 20.9393 31.2269 22.5247 29.9825 23.7691C28.7381 25.0135 27.1527 25.8609 25.4267 26.2042C23.7007 26.5476 21.9116 26.3713 20.2858 25.6979C18.6599 25.0245 17.2703 23.884 16.2926 22.4208C15.3149 20.9575 14.7931 19.2373 14.7931 17.4774C14.7959 15.1185 15.7343 12.857 17.4023 11.1889C19.0703 9.52089 21.3319 8.58254 23.6908 8.57969Z" fill="black"/>
<path d="M20.8796 16.7223C20.9489 16.7223 21.0174 16.7087 21.0813 16.6821C21.1453 16.6556 21.2033 16.6168 21.2522 16.5678C21.3011 16.5188 21.3399 16.4606 21.3662 16.3966C21.3926 16.3326 21.4061 16.2641 21.406 16.1949V14.4944C21.406 14.3548 21.3506 14.2209 21.2518 14.1222C21.1531 14.0235 21.0192 13.968 20.8796 13.968C20.74 13.968 20.6062 14.0235 20.5074 14.1222C20.4087 14.2209 20.3533 14.3548 20.3533 14.4944V16.1949C20.3531 16.2641 20.3666 16.3326 20.393 16.3966C20.4194 16.4606 20.4582 16.5188 20.5071 16.5678C20.556 16.6168 20.614 16.6556 20.678 16.6821C20.7419 16.7087 20.8104 16.7223 20.8796 16.7223Z" fill="black"/>
<path d="M26.502 16.7223C26.5712 16.7223 26.6397 16.7087 26.7036 16.6821C26.7676 16.6556 26.8256 16.6168 26.8745 16.5678C26.9234 16.5188 26.9622 16.4606 26.9886 16.3966C27.015 16.3326 27.0285 16.2641 27.0283 16.1949V14.4944C27.0283 14.3548 26.9729 14.2209 26.8742 14.1222C26.7754 14.0235 26.6416 13.968 26.502 13.968C26.3624 13.968 26.2285 14.0235 26.1298 14.1222C26.031 14.2209 25.9756 14.3548 25.9756 14.4944V16.1949C25.9754 16.2641 25.989 16.3326 26.0153 16.3966C26.0417 16.4606 26.0805 16.5188 26.1294 16.5678C26.1783 16.6168 26.2363 16.6556 26.3003 16.6821C26.3642 16.7087 26.4327 16.7223 26.502 16.7223Z" fill="black"/>
<path d="M23.6909 23.0603C24.5638 23.0614 25.4246 22.8558 26.2028 22.4604C26.981 22.0649 27.6546 21.4908 28.1683 20.7851C28.2482 20.6724 28.2808 20.5328 28.2589 20.3963C28.237 20.2599 28.1625 20.1375 28.0513 20.0554C27.9401 19.9734 27.8012 19.9383 27.6643 19.9576C27.5275 19.9769 27.4037 20.0492 27.3196 20.1588C26.9031 20.7311 26.3572 21.1969 25.7264 21.518C25.0955 21.8391 24.3977 22.0065 23.6898 22.0065C22.982 22.0065 22.2842 21.8391 21.6533 21.518C21.0225 21.1969 20.4766 20.7311 20.0601 20.1588C19.9746 20.0533 19.8516 19.9848 19.7169 19.9676C19.5822 19.9504 19.446 19.9859 19.3368 20.0666C19.2276 20.1473 19.1537 20.2671 19.1305 20.4009C19.1074 20.5347 19.1367 20.6723 19.2125 20.7851C19.7263 21.491 20.3999 22.0653 21.1784 22.4607C21.9568 22.8562 22.8178 23.0616 23.6909 23.0603Z" fill="black"/>
<path d="M45.909 25.445C44.2812 23.8172 42.1394 22.8042 39.8484 22.5785C37.5575 22.3528 35.2591 22.9284 33.345 24.2073C31.4308 25.4862 30.0193 27.3892 29.351 29.592C28.6826 31.7949 28.7987 34.1614 29.6795 36.2883C30.5604 38.4152 32.1514 40.1708 34.1815 41.2562C36.2117 42.3415 38.5553 42.6894 40.8132 42.2405C43.071 41.7916 45.1034 40.5737 46.564 38.7944C48.0246 37.015 48.8231 34.7843 48.8233 32.4822C48.8272 31.1748 48.5716 29.8796 48.0714 28.6716C47.5711 27.4636 46.8361 26.3669 45.909 25.445ZM45.1624 38.7729C43.7069 40.2274 41.7921 41.1324 39.7443 41.3335C37.6964 41.5346 35.6422 41.0194 33.9316 39.8758C32.2209 38.7321 30.9598 37.0308 30.3629 35.0615C29.766 33.0923 29.8704 30.977 30.6582 29.0761C31.446 27.1752 32.8686 25.6062 34.6835 24.6365C36.4984 23.6668 38.5934 23.3564 40.6115 23.7581C42.6296 24.1599 44.446 25.2489 45.7512 26.8396C47.0564 28.4304 47.7697 30.4245 47.7695 32.4822C47.7729 33.6512 47.5442 34.8091 47.0967 35.8889C46.6491 36.9688 45.9917 37.949 45.1624 38.7729Z" fill="black"/>
<path d="M16.123 27.5708C13.8215 27.5713 11.5914 28.3698 9.8126 29.8301C8.03379 31.2905 6.81634 33.3224 6.36766 35.5797C5.91898 37.837 6.26683 40.1801 7.35195 42.2097C8.43706 44.2393 10.1923 45.8299 12.3187 46.7105C14.445 47.5911 16.8109 47.7072 19.0133 47.0391C21.2156 46.3709 23.1182 44.9598 24.3968 43.0462C25.6755 41.1326 26.2511 38.8349 26.0256 36.5445C25.8001 34.2541 24.7875 32.1127 23.1602 30.4852C22.2381 29.5584 21.1414 28.8236 19.9334 28.3233C18.7255 27.8231 17.4304 27.5673 16.123 27.5708ZM22.4136 43.8141C20.958 45.2689 19.0431 46.174 16.995 46.3753C14.9469 46.5765 12.8924 46.0614 11.1815 44.9177C9.47063 43.774 8.2092 42.0725 7.61214 40.1031C7.01509 38.1337 7.11934 36.0181 7.90715 34.1169C8.69496 32.2158 10.1176 30.6465 11.9326 29.6766C13.7477 28.7067 15.8429 28.3961 17.8613 28.7977C19.8796 29.1994 21.6963 30.2884 23.0018 31.8793C24.3073 33.4702 25.0208 35.4644 25.0208 37.5224C25.024 38.6915 24.7953 39.8495 24.3478 40.9295C23.9002 42.0095 23.2428 42.99 22.4136 43.8141Z" fill="black"/>
<path d="M39.5431 36.9446C38.8438 37.0549 38.1284 36.9983 37.4552 36.7793C36.782 36.5603 36.1702 36.1852 35.6697 35.6846C35.1691 35.184 34.7941 34.5721 34.5753 33.8988C34.3565 33.2256 34.3 32.5101 34.4105 31.8109C34.4293 31.6735 34.3932 31.5342 34.3101 31.4232C34.227 31.3122 34.1035 31.2384 33.9663 31.2178C33.8292 31.1972 33.6894 31.2314 33.5773 31.313C33.4652 31.3947 33.3898 31.5172 33.3674 31.6541C33.2439 32.4448 33.2932 33.2529 33.5118 34.0228C33.7303 34.7927 34.1131 35.5062 34.6337 36.114C35.1543 36.7219 35.8004 37.2098 36.5275 37.5442C37.2546 37.8786 38.0456 38.0515 38.8459 38.051C39.1336 38.0508 39.4208 38.0293 39.7053 37.9866C39.8432 37.9656 39.9672 37.8909 40.0501 37.7788C40.133 37.6667 40.1682 37.5262 40.1479 37.3883C40.1394 37.3185 40.1167 37.2512 40.0812 37.1906C40.0457 37.1299 39.9981 37.0772 39.9414 37.0356C39.8848 36.994 39.8202 36.9645 39.7517 36.9489C39.6832 36.9332 39.6122 36.9318 39.5431 36.9446Z" fill="black"/>
<path d="M37.4334 28.4667C37.6346 28.4346 37.8406 28.4506 38.0344 28.5135C38.2282 28.5764 38.4044 28.6843 38.5484 28.8285C38.6924 28.9726 38.8002 29.1488 38.863 29.3427C38.9257 29.5366 38.9416 29.7425 38.9094 29.9437C38.8992 30.0123 38.9026 30.0822 38.9194 30.1494C38.9362 30.2167 38.9662 30.28 39.0075 30.3356C39.0488 30.3913 39.1006 30.4383 39.1601 30.4739C39.2196 30.5095 39.2855 30.533 39.3541 30.5431C39.3795 30.5447 39.405 30.5447 39.4304 30.5431C39.5567 30.5433 39.679 30.498 39.7748 30.4156C39.8706 30.3332 39.9336 30.2191 39.9524 30.0941C40.0072 29.7303 39.9757 29.3588 39.8605 29.0094C39.7452 28.66 39.5494 28.3427 39.2888 28.0829C39.0282 27.8232 38.7102 27.6284 38.3605 27.5142C38.0108 27.4001 37.6391 27.3698 37.2755 27.4258C37.2063 27.4352 37.1396 27.4584 37.0794 27.4938C37.0192 27.5292 36.9667 27.5763 36.9248 27.6322C36.883 27.6881 36.8526 27.7518 36.8356 27.8195C36.8185 27.8872 36.8151 27.9577 36.8254 28.0268C36.8358 28.0958 36.8598 28.1622 36.8961 28.2219C36.9323 28.2816 36.98 28.3335 37.0365 28.3747C37.0929 28.4158 37.157 28.4453 37.2249 28.4614C37.2929 28.4776 37.3634 28.4801 37.4323 28.4688L37.4334 28.4667Z" fill="black"/>
<path d="M41.25 31.4015C41.1132 31.4239 40.9906 31.4994 40.909 31.6115C40.8273 31.7236 40.7931 31.8633 40.8137 32.0004C40.8343 32.1376 40.9082 32.2611 41.0192 32.3442C41.1302 32.4273 41.2695 32.4634 41.4069 32.4446C41.6081 32.4125 41.814 32.4285 42.0079 32.4914C42.2017 32.5543 42.3778 32.6622 42.5219 32.8064C42.6659 32.9505 42.7737 33.1267 42.8365 33.3206C42.8992 33.5145 42.9151 33.7204 42.8828 33.9216C42.8628 34.06 42.8983 34.2007 42.9817 34.313C43.065 34.4253 43.1893 34.5001 43.3276 34.521C43.3532 34.5244 43.379 34.5262 43.4049 34.5264C43.5313 34.5265 43.6535 34.481 43.7492 34.3984C43.8449 34.3157 43.9076 34.2014 43.9259 34.0763C43.9823 33.7121 43.952 33.3396 43.8374 32.9893C43.7229 32.6389 43.5273 32.3206 43.2666 32.06C43.0059 31.7994 42.6875 31.604 42.3371 31.4895C41.9867 31.3751 41.6143 31.345 41.25 31.4015Z" fill="black"/>
<path d="M21.5359 34.1098C21.5271 34.0966 21.5174 34.084 21.5069 34.0722C21.4952 34.0561 21.4826 34.0407 21.4693 34.026C21.4607 34.0174 21.451 34.012 21.4424 34.0045C21.4258 33.989 21.4083 33.9747 21.3898 33.9615L21.3586 33.9433C21.3393 33.9316 21.3192 33.9212 21.2985 33.9121L21.2684 33.9024C21.2458 33.8949 21.2233 33.8874 21.2007 33.882C21.1928 33.8826 21.1849 33.8826 21.1771 33.882C21.1513 33.882 21.1244 33.8756 21.0987 33.8745H21.0815C21.0534 33.8752 21.0254 33.8781 20.9977 33.8831L20.9773 33.8885C20.9513 33.8939 20.9258 33.9014 20.901 33.911C20.887 33.9164 20.8731 33.925 20.8591 33.9314C20.8451 33.9379 20.829 33.9454 20.814 33.9551C20.7972 33.9667 20.781 33.9792 20.7657 33.9927C20.7549 34.0023 20.742 34.0109 20.7313 34.0217C20.7295 34.0212 20.7277 34.0212 20.7259 34.0217L12.6231 42.1202C12.6123 42.131 12.6037 42.1438 12.5941 42.1557C12.5799 42.1711 12.567 42.1876 12.5554 42.2051C12.5494 42.2155 12.544 42.2263 12.5393 42.2373C12.5289 42.2554 12.5196 42.274 12.5114 42.2932C12.5046 42.3122 12.4989 42.3316 12.4942 42.3512C12.4942 42.3641 12.4867 42.377 12.4834 42.3898C12.4802 42.4027 12.4834 42.4339 12.477 42.4564C12.4705 42.479 12.477 42.479 12.477 42.4908C12.4781 42.512 12.4802 42.5332 12.4834 42.5542C12.4834 42.5671 12.4834 42.58 12.4834 42.5918C12.4872 42.6108 12.4926 42.6295 12.4995 42.6477C12.5032 42.6619 12.5079 42.6759 12.5135 42.6895C12.5206 42.7068 12.5292 42.7233 12.5393 42.739C12.5468 42.7529 12.5533 42.7669 12.5618 42.7798C12.5731 42.7955 12.5853 42.8106 12.5984 42.8249C12.608 42.8356 12.6145 42.8475 12.6252 42.8582C12.6381 42.8701 12.6518 42.8813 12.666 42.8915C12.68 42.9022 12.6929 42.9151 12.7079 42.9248C13.9354 43.7002 15.3901 44.035 16.833 43.8742C18.2759 43.7134 19.6212 43.0665 20.6478 42.0399C21.6744 41.0133 22.3212 39.668 22.482 38.2251C22.6428 36.7822 22.308 35.3275 21.5326 34.1001L21.5359 34.1098ZM19.9106 41.307C19.1361 42.0867 18.139 42.6072 17.0565 42.7968C15.9741 42.9865 14.8594 42.8361 13.866 42.3662L20.9698 35.2624C21.4403 36.2561 21.5911 37.3712 21.4014 38.4542C21.2117 39.5371 20.6908 40.5346 19.9106 41.3092V41.307Z" fill="black"/>
<path d="M13.8273 36.806C13.7941 36.7046 13.7274 36.6174 13.6382 36.5589C13.549 36.5003 13.4426 36.4738 13.3363 36.4837L10.2157 36.5159C10.0801 36.5228 9.95236 36.5818 9.8591 36.6805C9.76585 36.7792 9.71427 36.9101 9.7151 37.0459C9.71593 37.1817 9.76911 37.312 9.86356 37.4096C9.95802 37.5071 10.0865 37.5645 10.2222 37.5698L12.0483 37.5504L10.8495 38.7535C10.7508 38.8533 10.6957 38.9881 10.6964 39.1284C10.6971 39.2687 10.7536 39.403 10.8533 39.5017C10.953 39.6005 11.0878 39.6555 11.2282 39.6548C11.3685 39.6541 11.5028 39.5977 11.6015 39.498L13.7145 37.3828C13.7884 37.3087 13.8386 37.2143 13.8587 37.1116C13.8787 37.0089 13.8678 36.9025 13.8273 36.806Z" fill="black"/>
<path d="M15.4065 35.2268C15.5031 35.2679 15.6098 35.2791 15.7128 35.259C15.8158 35.2389 15.9104 35.1884 15.9845 35.114L18.0996 32.9978C18.1931 32.8979 18.2442 32.7655 18.2419 32.6286C18.2396 32.4918 18.1843 32.3612 18.0875 32.2644C17.9907 32.1676 17.8601 32.1122 17.7232 32.11C17.5864 32.1077 17.454 32.1587 17.3541 32.2523L16.152 33.4554L16.1714 31.6292C16.1725 31.5596 16.1599 31.4905 16.1342 31.4258C16.1086 31.3611 16.0704 31.3021 16.0219 31.2522C15.9734 31.2023 15.9155 31.1625 15.8516 31.135C15.7876 31.1075 15.7189 31.093 15.6493 31.0921C15.5795 31.0897 15.5098 31.1013 15.4446 31.1264C15.3794 31.1515 15.3199 31.1896 15.2698 31.2382C15.2196 31.2869 15.1798 31.3452 15.1527 31.4096C15.1256 31.474 15.1119 31.5432 15.1122 31.6131L15.0789 34.7348C15.0777 34.8402 15.1083 34.9436 15.1668 35.0314C15.2252 35.1191 15.3088 35.1872 15.4065 35.2268Z" fill="black"/>
</svg>
