<svg width="65" height="65" viewBox="0 0 65 65" fill="none" xmlns="http://www.w3.org/2000/svg">
<rect x="5.21191" y="4.77734" width="54.7234" height="54.7234" rx="27.3617" fill="#F59C1C"/>
<rect x="6.49512" y="5.99512" width="52.1176" height="52.1176" rx="26.0588" fill="white"/>
<path d="M48.1986 38.2174C48.9138 37.8555 49.4881 37.266 49.8312 36.5417C50.1742 35.8173 50.2664 34.9994 50.0932 34.2169C49.92 33.4344 49.4913 32.7318 48.8746 32.2199C48.258 31.7079 47.4885 31.4158 46.6875 31.3895C45.8865 31.3633 45.0995 31.6044 44.4506 32.0748C43.8018 32.5453 43.328 33.2183 43.1039 33.9878C42.8798 34.7573 42.9182 35.5794 43.2131 36.3247C43.5079 37.0699 44.0424 37.6958 44.7323 38.1037C43.8324 38.4712 43.0859 39.1365 42.6177 39.9884L41.0464 42.8443L38.6469 39.6234C38.6086 39.572 38.5588 39.5303 38.5016 39.5016C38.4443 39.4729 38.3811 39.458 38.3171 39.458H37.0618V37.7886C37.0605 36.9441 36.7961 36.121 36.3052 35.4338C35.8143 34.7467 35.1214 34.2296 34.323 33.9546C34.8633 33.5639 35.2659 33.012 35.4731 32.3782C35.6802 31.7444 35.6811 31.0612 35.4758 30.4268C35.2704 29.7924 34.8694 29.2394 34.3301 28.8472C33.7909 28.4549 33.1412 28.2437 32.4744 28.2437C31.8076 28.2437 31.158 28.4549 30.6188 28.8472C30.0795 29.2394 29.6784 29.7924 29.4731 30.4268C29.2678 31.0612 29.2687 31.7444 29.4758 32.3782C29.6829 33.012 30.0856 33.5639 30.6259 33.9546C29.8274 34.2295 29.1344 34.7465 28.6435 35.4337C28.1526 36.1209 27.8882 36.9441 27.8871 37.7886V39.458H26.6318C26.5677 39.458 26.5046 39.4729 26.4473 39.5016C26.39 39.5303 26.3403 39.572 26.302 39.6234L23.9016 42.8443L22.3312 39.9884C21.8627 39.1367 21.1163 38.4715 20.2166 38.1037C20.9067 37.6958 21.4414 37.0698 21.7365 36.3243C22.0315 35.5789 22.07 34.7565 21.8459 33.9868C21.6218 33.217 21.1478 32.5438 20.4988 32.0732C19.8498 31.6026 19.0626 31.3614 18.2613 31.3877C17.4601 31.414 16.6904 31.7062 16.0736 32.2183C15.4568 32.7304 15.028 33.4332 14.8548 34.216C14.6816 34.9987 14.7739 35.8169 15.1171 36.5414C15.4603 37.2659 16.0349 37.8555 16.7502 38.2174C16.0935 38.5504 15.5418 39.0587 15.1563 39.6861C14.7708 40.3134 14.5664 41.0352 14.5659 41.7715V48.6146C14.5659 48.7236 14.6092 48.828 14.6862 48.905C14.7632 48.9821 14.8677 49.0253 14.9766 49.0253C15.0855 49.0253 15.19 48.9821 15.267 48.905C15.344 48.828 15.3873 48.7236 15.3873 48.6146V41.7715C15.3882 40.9328 15.7217 40.1286 16.3148 39.5355C16.9078 38.9423 17.7118 38.6085 18.5506 38.6074H18.6091C19.2229 38.608 19.8252 38.7732 20.3534 39.0858C20.8816 39.3983 21.3163 39.8468 21.6122 40.3845L23.4909 43.8C23.4909 43.8 23.4952 43.8078 23.4969 43.8121L23.8783 44.5052C23.9139 44.5695 23.966 44.6232 24.0293 44.6606C24.0926 44.698 24.1647 44.7177 24.2382 44.7178H28.1936C28.4448 44.7178 28.6857 44.8176 28.8633 44.9952C29.0409 45.1728 29.1407 45.4137 29.1407 45.6649C29.1407 45.9161 29.0409 46.157 28.8633 46.3346C28.6857 46.5122 28.4448 46.612 28.1936 46.612H23.4341C23.2052 46.6126 22.9798 46.5561 22.7782 46.4477C22.5766 46.3394 22.4052 46.1825 22.2795 45.9912C22.2709 45.9753 22.2611 45.9601 22.2502 45.9456L20.0229 42.3294C19.9954 42.2818 19.9587 42.2402 19.9149 42.2071C19.8711 42.1739 19.8211 42.1499 19.7678 42.1364C19.7146 42.1229 19.6592 42.1202 19.6049 42.1285C19.5505 42.1369 19.4985 42.156 19.4517 42.1848C19.4049 42.2136 19.3644 42.2515 19.3325 42.2962C19.3006 42.341 19.2781 42.3917 19.2661 42.4453C19.2542 42.4989 19.2531 42.5544 19.263 42.6085C19.2729 42.6625 19.2936 42.714 19.3237 42.7599L21.4254 46.1755L18.5471 50.0275C18.5122 50.0705 18.4864 50.1201 18.4712 50.1733C18.4559 50.2265 18.4516 50.2822 18.4584 50.3371C18.4653 50.3921 18.4832 50.445 18.511 50.4929C18.5388 50.5407 18.576 50.5824 18.6204 50.6155C18.6648 50.6486 18.7153 50.6724 18.7691 50.6855C18.8229 50.6985 18.8788 50.7006 18.9334 50.6915C18.988 50.6824 19.0402 50.6624 19.0868 50.6326C19.1335 50.6028 19.1737 50.564 19.2049 50.5183L21.9411 46.8479C22.3486 47.2217 22.8811 47.4299 23.4341 47.4316H28.1962C28.6584 47.4214 29.0981 47.2307 29.4214 46.9002C29.7446 46.5698 29.9256 46.1259 29.9256 45.6636C29.9256 45.2013 29.7446 44.7574 29.4214 44.427C29.0981 44.0965 28.6584 43.9058 28.1962 43.8956H24.481L24.3364 43.6373L26.8376 40.2794H38.1113L40.6082 43.6373L40.4635 43.8956H36.7553C36.2931 43.9058 35.8533 44.0965 35.5301 44.427C35.2068 44.7574 35.0258 45.2013 35.0258 45.6636C35.0258 46.1259 35.2068 46.5698 35.5301 46.9002C35.8533 47.2307 36.2931 47.4214 36.7553 47.4316H41.5148C42.0668 47.4295 42.5982 47.2217 43.0052 46.8488L45.7414 50.5191C45.8082 50.6015 45.9043 50.6547 46.0095 50.6679C46.1147 50.681 46.2209 50.6529 46.3058 50.5895C46.3908 50.5261 46.448 50.4323 46.4654 50.3277C46.4828 50.2231 46.459 50.1159 46.3992 50.0284L43.5235 46.1694L45.6243 42.7548C45.6526 42.7089 45.6715 42.658 45.6801 42.6048C45.6887 42.5516 45.6867 42.4973 45.6742 42.4449C45.6618 42.3924 45.6392 42.343 45.6076 42.2993C45.5761 42.2557 45.5363 42.2187 45.4904 42.1904C45.4446 42.1621 45.3936 42.1432 45.3404 42.1346C45.2872 42.126 45.2329 42.128 45.1805 42.1404C45.1281 42.1529 45.0786 42.1755 45.035 42.2071C44.9913 42.2386 44.9543 42.2784 44.926 42.3243L42.6995 45.9464C42.6901 45.9591 42.6815 45.9723 42.6737 45.986C42.548 46.1785 42.376 46.3365 42.1736 46.4455C41.9712 46.5546 41.7447 46.6112 41.5148 46.6103H36.7553C36.5041 46.6103 36.2632 46.5105 36.0856 46.3329C35.908 46.1553 35.8082 45.9144 35.8082 45.6632C35.8082 45.412 35.908 45.1711 36.0856 44.9935C36.2632 44.8159 36.5041 44.7161 36.7553 44.7161H40.7106C40.7842 44.716 40.8563 44.6963 40.9196 44.6589C40.9829 44.6215 41.035 44.5678 41.0705 44.5034L41.4494 43.8146C41.4554 43.8043 41.4614 43.7931 41.4666 43.7819L43.3366 40.3845C43.6327 39.8466 44.0677 39.398 44.5962 39.0856C45.1248 38.7731 45.7275 38.6083 46.3415 38.6083H46.4C47.2388 38.6094 48.0428 38.9432 48.6358 39.5363C49.2289 40.1295 49.5624 40.9336 49.5633 41.7724V48.6155C49.5633 48.7244 49.6066 48.8289 49.6836 48.9059C49.7606 48.9829 49.8651 49.0262 49.974 49.0262C50.0829 49.0262 50.1874 48.9829 50.2644 48.9059C50.3414 48.8289 50.3847 48.7244 50.3847 48.6155V41.7715C50.384 41.035 50.1794 40.3131 49.7936 39.6857C49.4077 39.0584 48.8557 38.5502 48.1986 38.2174ZM15.5905 34.9981C15.5905 34.4466 15.754 33.9074 16.0605 33.4488C16.3669 32.9902 16.8024 32.6328 17.312 32.4217C17.8216 32.2106 18.3823 32.1554 18.9233 32.263C19.4642 32.3706 19.9612 32.6362 20.3512 33.0262C20.7412 33.4162 21.0068 33.9131 21.1144 34.4541C21.222 34.995 21.1668 35.5558 20.9557 36.0653C20.7446 36.5749 20.3872 37.0105 19.9286 37.3169C19.47 37.6233 18.9308 37.7869 18.3792 37.7869C17.6399 37.786 16.9311 37.4919 16.4083 36.9691C15.8855 36.4463 15.5914 35.7375 15.5905 34.9981ZM30.1412 31.4009C30.1412 30.9393 30.2781 30.4879 30.5346 30.1041C30.7911 29.7202 31.1557 29.421 31.5823 29.2444C32.0088 29.0678 32.4782 29.0216 32.931 29.1117C33.3838 29.2018 33.7997 29.4242 34.1261 29.7508C34.4525 30.0773 34.6747 30.4933 34.7647 30.9461C34.8547 31.3989 34.8083 31.8683 34.6315 32.2948C34.4547 32.7213 34.1554 33.0857 33.7715 33.3421C33.3875 33.5985 32.9361 33.7352 32.4744 33.7351C31.8556 33.7344 31.2623 33.4883 30.8247 33.0507C30.3871 32.6131 30.141 32.0198 30.1403 31.4009H30.1412ZM28.7093 37.7886C28.7103 36.9314 29.0512 36.1096 29.6573 35.5035C30.2634 34.8974 31.0852 34.5565 31.9424 34.5556H33.0083C33.8654 34.5565 34.6872 34.8974 35.2933 35.5035C35.8994 36.1096 36.2403 36.9314 36.2413 37.7886V39.458H34.9713V37.7154C34.9738 37.66 34.9651 37.6046 34.9456 37.5526C34.9262 37.5006 34.8964 37.4531 34.858 37.4129C34.8197 37.3728 34.7736 37.3408 34.7225 37.319C34.6715 37.2972 34.6166 37.2859 34.561 37.2859C34.5055 37.2859 34.4506 37.2972 34.3995 37.319C34.3485 37.3408 34.3024 37.3728 34.2641 37.4129C34.2257 37.4531 34.1959 37.5006 34.1764 37.5526C34.157 37.6046 34.1482 37.66 34.1508 37.7154V39.4624H30.7929V37.7154C30.7955 37.66 30.7867 37.6046 30.7673 37.5526C30.7478 37.5006 30.718 37.4531 30.6796 37.4129C30.6413 37.3728 30.5952 37.3408 30.5442 37.319C30.4931 37.2972 30.4382 37.2859 30.3827 37.2859C30.3272 37.2859 30.2722 37.2972 30.2212 37.319C30.1701 37.3408 30.124 37.3728 30.0857 37.4129C30.0474 37.4531 30.0175 37.5006 29.9981 37.5526C29.9786 37.6046 29.9699 37.66 29.9724 37.7154V39.4624H28.7085L28.7093 37.7886ZM43.7818 34.9981C43.7818 34.4466 43.9453 33.9074 44.2518 33.4488C44.5582 32.9902 44.9937 32.6328 45.5033 32.4217C46.0129 32.2106 46.5736 32.1554 47.1146 32.263C47.6555 32.3706 48.1524 32.6362 48.5424 33.0262C48.9325 33.4162 49.1981 33.9131 49.3057 34.4541C49.4133 34.995 49.358 35.5558 49.147 36.0653C48.9359 36.5749 48.5785 37.0105 48.1199 37.3169C47.6612 37.6233 47.1221 37.7869 46.5705 37.7869C45.831 37.7862 45.122 37.4922 44.599 36.9694C44.0761 36.4466 43.7818 35.7376 43.7809 34.9981H43.7818Z" fill="black" fill-opacity="0.8"/>
<path d="M24.4506 26.3559C24.4914 26.3559 24.532 26.3498 24.5711 26.3378L28.6065 25.0989C29.8072 25.5674 31.0854 25.8057 32.3742 25.8014C32.685 25.8014 32.9924 25.7877 33.2937 25.7618C34.283 27.0059 36.0601 27.7705 38.0008 27.7705C38.708 27.7729 39.4116 27.6687 40.0878 27.4614L42.4374 28.3379C42.509 28.3645 42.5866 28.3706 42.6615 28.3555C42.7364 28.3404 42.8055 28.3048 42.8613 28.2525C42.917 28.2003 42.957 28.1335 42.9769 28.0598C42.9968 27.9861 42.9957 27.9082 42.9738 27.8351L42.4417 26.0658C43.121 25.3597 43.493 24.4979 43.493 23.6145C43.493 22.0441 42.3264 20.614 40.4976 19.9123C40.5045 19.8072 40.508 19.7013 40.508 19.5946C40.508 16.1704 36.8591 13.3843 32.3742 13.3843C27.8893 13.3843 24.2413 16.1704 24.2413 19.5946C24.2413 20.9007 24.7579 22.1371 25.736 23.1883L24.1053 25.7231C24.0655 25.785 24.043 25.8566 24.0403 25.9302C24.0376 26.0038 24.0548 26.0768 24.09 26.1415C24.1252 26.2062 24.1772 26.2603 24.2405 26.298C24.3038 26.3357 24.376 26.3557 24.4497 26.3559H24.4506ZM42.6725 23.6145C42.6725 24.3541 42.3358 25.0567 41.6987 25.6456C41.6421 25.6976 41.6014 25.7646 41.5811 25.8388C41.5609 25.9129 41.5619 25.9913 41.5842 26.0649L41.9492 27.2797L40.2411 26.6426C40.1532 26.6091 40.0563 26.6073 39.9673 26.6374C39.3331 26.8483 38.669 26.955 38.0008 26.9534C36.519 26.9534 35.1595 26.4592 34.283 25.6327C37.3705 25.0636 39.7761 23.147 40.3676 20.7466C41.7805 21.3398 42.6725 22.435 42.6725 23.6145ZM26.603 23.3562C26.6545 23.2766 26.6768 23.1817 26.6661 23.0875C26.6555 22.9933 26.6125 22.9057 26.5445 22.8396C25.5741 21.8925 25.0619 20.7733 25.0619 19.5929C25.0619 16.6207 28.3422 14.2039 32.3742 14.2039C36.4062 14.2039 39.6874 16.6216 39.6874 19.592C39.6874 22.5624 36.4071 24.9809 32.3742 24.9809C31.1434 24.9863 29.9235 24.7496 28.7839 24.2844C28.6956 24.2476 28.5973 24.2427 28.5058 24.2706L25.4062 25.2237L26.603 23.3562Z" fill="black" fill-opacity="0.8"/>
<path d="M28.355 18.5382H36.3941C36.503 18.5382 36.6074 18.4949 36.6845 18.4179C36.7615 18.3409 36.8047 18.2364 36.8047 18.1275C36.8047 18.0186 36.7615 17.9141 36.6845 17.8371C36.6074 17.7601 36.503 17.7168 36.3941 17.7168H28.355C28.2461 17.7168 28.1416 17.7601 28.0646 17.8371C27.9876 17.9141 27.9443 18.0186 27.9443 18.1275C27.9443 18.2364 27.9876 18.3409 28.0646 18.4179C28.1416 18.4949 28.2461 18.5382 28.355 18.5382Z" fill="black" fill-opacity="0.8"/>
<path d="M36.805 21.0553C36.8048 20.9465 36.7614 20.8423 36.6844 20.7654C36.6074 20.6886 36.5031 20.6454 36.3943 20.6455H28.3553C28.2998 20.6429 28.2444 20.6516 28.1924 20.6711C28.1404 20.6906 28.0929 20.7204 28.0528 20.7587C28.0126 20.7971 27.9807 20.8432 27.9589 20.8942C27.937 20.9453 27.9258 21.0002 27.9258 21.0557C27.9258 21.1112 27.937 21.1662 27.9589 21.2172C27.9807 21.2683 28.0126 21.3143 28.0528 21.3527C28.0929 21.391 28.1404 21.4208 28.1924 21.4403C28.2444 21.4598 28.2998 21.4685 28.3553 21.466H36.3943C36.4482 21.466 36.5016 21.4553 36.5515 21.4347C36.6013 21.4141 36.6466 21.3838 36.6847 21.3457C36.7228 21.3075 36.7531 21.2623 36.7737 21.2124C36.7944 21.1626 36.805 21.1092 36.805 21.0553Z" fill="black" fill-opacity="0.8"/>
</svg>
