<svg width="56" height="56" viewBox="0 0 56 56" fill="none" xmlns="http://www.w3.org/2000/svg">
<rect x="1.72314" y="0.430664" width="54.2769" height="54.2769" rx="27.1385" fill="#2697FF"/>
<rect x="3.01514" y="1.72314" width="51.6923" height="51.6923" rx="25.8462" fill="white"/>
<g style="mix-blend-mode:multiply">
<rect width="32.3077" height="32.3077" transform="translate(12.4922 12.0615)" fill="white"/>
<path d="M35.7133 43.0234H29.9921V41.3407C29.9921 41.1556 29.6388 36.1311 33.4282 33.3277C33.9046 32.9871 34.3415 32.5943 34.7306 32.1566L39.0854 27.1085C39.3445 26.8066 39.7022 26.6063 40.095 26.5431V18.7926C40.0945 18.36 40.2607 17.9438 40.559 17.6304C40.8573 17.3171 41.2648 17.1307 41.6969 17.1099C41.9188 17.1004 42.1403 17.136 42.348 17.2147C42.5557 17.2934 42.7452 17.4134 42.9051 17.5676C43.0794 17.7367 43.2177 17.9392 43.312 18.163C43.4062 18.3867 43.4544 18.6272 43.4537 18.87V28.9662C43.4543 29.4506 43.4915 29.9344 43.5647 30.4133C43.7128 31.4229 43.7667 33.3681 42.4306 34.8556C40.5796 36.9253 39.0114 38.5171 37.3522 40.1998L36.6219 40.9335L35.7133 41.5224V43.0234ZM30.6652 42.3503H35.0402V41.159L36.2114 40.3916L36.8642 39.7186C38.5166 38.0359 40.0782 36.4541 41.9123 34.3912C43.0666 33.109 43.0128 31.4027 42.8816 30.4974C42.8104 29.989 42.7766 29.4761 42.7806 28.9628V18.8666C42.782 18.7158 42.7529 18.5662 42.6951 18.4268C42.6372 18.2874 42.5519 18.1612 42.4441 18.0556C42.3502 17.9646 42.2389 17.8936 42.1169 17.8467C41.9948 17.7999 41.8646 17.7782 41.734 17.783C41.4727 17.7926 41.2253 17.9032 41.0439 18.0915C40.8625 18.2798 40.7612 18.5311 40.7614 18.7926V26.5868C41.01 26.6527 41.2403 26.7748 41.4344 26.9436C41.6022 27.0862 41.7397 27.2609 41.8391 27.4574C41.9385 27.6538 41.9977 27.8682 42.0133 28.0878C42.0133 28.1316 42.0133 28.1719 42.0133 28.2157C42.0131 28.6199 41.8673 29.0106 41.6027 29.3162L37.1537 34.509C37.0943 34.5732 37.0123 34.6119 36.925 34.6167C36.8377 34.6216 36.7519 34.5922 36.6858 34.5349C36.6198 34.4776 36.5786 34.3968 36.5711 34.3097C36.5636 34.2225 36.5902 34.1359 36.6455 34.0681L41.1316 28.8888C41.2949 28.7031 41.3826 28.4629 41.3772 28.2157V28.1484C41.356 27.889 41.2354 27.6479 41.0407 27.4753C40.8741 27.315 40.6557 27.2195 40.4248 27.2061H40.3575C40.2152 27.2059 40.0745 27.2358 39.9446 27.2938C39.8147 27.3518 39.6985 27.4366 39.6037 27.5426L35.2489 32.5907C34.8273 33.0655 34.3543 33.4922 33.8388 33.8628C30.3522 36.4474 30.6652 41.2666 30.6652 41.3138V42.3503Z" fill="black"/>
<path d="M27.4816 43.0232H21.7605V41.5222L20.8081 40.8861L20.135 40.2131C18.4759 38.5304 16.9076 36.9385 15.0465 34.8655C13.7004 33.378 13.761 31.4429 13.9124 30.4232C13.9829 29.944 14.0189 29.4604 14.0201 28.976V18.8799C14.02 18.6353 14.0694 18.3931 14.1654 18.1681C14.2614 17.9431 14.402 17.7399 14.5788 17.5708C14.7378 17.4162 14.9267 17.2957 15.1338 17.2164C15.3409 17.1372 15.562 17.1009 15.7836 17.1097C16.2009 17.1272 16.5963 17.3014 16.8908 17.5977C17.0479 17.7544 17.1726 17.9406 17.2575 18.1456C17.3424 18.3507 17.3859 18.5705 17.3855 18.7924V26.5597C17.7783 26.6229 18.136 26.8232 18.3951 27.1251L22.7499 32.1732C23.139 32.6109 23.5759 33.0037 24.0523 33.3443C27.8417 36.1477 27.5018 41.1722 27.485 41.3842L27.4816 43.0232ZM22.4336 42.3501H26.8086V41.3405C26.8086 41.2664 27.1451 36.4472 23.6485 33.8693C23.1365 33.4966 22.6681 33.0677 22.2518 32.5905L17.8768 27.5626C17.7816 27.4561 17.6649 27.3711 17.5343 27.3131C17.4038 27.255 17.2625 27.2254 17.1196 27.226H17.059C16.8355 27.2357 16.6219 27.3212 16.4533 27.4684C16.2586 27.641 16.138 27.8821 16.1167 28.1414C16.1167 28.1684 16.1167 28.1919 16.1167 28.2188C16.1107 28.464 16.1958 28.7026 16.3557 28.8885L20.8417 34.0679C20.897 34.1357 20.9237 34.2223 20.9161 34.3094C20.9086 34.3966 20.8675 34.4774 20.8014 34.5347C20.7353 34.592 20.6496 34.6213 20.5622 34.6165C20.4749 34.6116 20.3929 34.573 20.3336 34.5087L15.8576 29.326C15.5858 29.0198 15.4351 28.6249 15.4336 28.2155C15.4336 28.1717 15.4336 28.1313 15.4336 28.0876C15.4671 27.6435 15.6752 27.2309 16.0124 26.94C16.2109 26.7656 16.4489 26.642 16.7057 26.5799V18.7924C16.706 18.6593 16.68 18.5274 16.6292 18.4044C16.5784 18.2814 16.5037 18.1696 16.4095 18.0756C16.2299 17.897 15.9896 17.7925 15.7365 17.7828C15.6055 17.7776 15.4749 17.7995 15.3527 17.8469C15.2306 17.8944 15.1195 17.9665 15.0264 18.0587C14.9187 18.1644 14.8334 18.2907 14.7756 18.43C14.7178 18.5694 14.6886 18.7189 14.6898 18.8698V28.9659C14.6898 29.483 14.6516 29.9993 14.5754 30.5107C14.4408 31.4159 14.3903 33.1222 15.5446 34.4044C17.3956 36.4674 18.9571 38.0525 20.6095 39.7318L21.2624 40.4049L22.4302 41.1722L22.4336 42.3501Z" fill="black"/>
<path d="M32.2741 31.8704H32.254C32.1727 31.8658 32.0959 31.8318 32.0377 31.7749C31.9795 31.718 31.944 31.6419 31.9376 31.5608C31.9174 31.5339 31.7761 31.3925 31.2039 31.3925C29.6256 31.3925 28.4713 31.3589 28.0439 30.9281C27.6804 30.568 27.8823 29.9824 28.0775 29.417C28.191 29.1397 28.2691 28.8491 28.3097 28.5521C28.0445 28.4849 27.7722 28.4498 27.4987 28.4478C26.6876 28.3973 25.678 28.3367 25.4054 27.519C25.3078 27.2228 25.0352 27.1824 24.2713 27.2598C23.6789 27.3069 23.0092 27.3641 22.565 26.9233C22.346 26.7458 22.1727 26.5184 22.0597 26.2602C21.9467 26.002 21.8973 25.7204 21.9155 25.4391C21.9518 25.2419 22.0366 25.0567 22.1624 24.9005C22.2881 24.7442 22.4508 24.6217 22.6357 24.544C23.0564 24.3319 23.6453 24.544 24.2982 24.8098C25.1227 25.1228 26.0583 25.4829 26.5665 24.9714C27.4482 24.093 27.2395 23.5815 26.5665 22.8915C26.4885 22.7931 26.3816 22.7215 26.2608 22.6871C26.1401 22.6527 26.0115 22.6571 25.8934 22.6997C25.7686 22.7384 25.6537 22.8039 25.5568 22.8915L25.3852 23.0632L23.6588 22.1983V22.1579C23.3961 21.8886 23.1647 21.5906 22.9689 21.2694C22.4102 20.3406 22.6323 19.7954 22.915 19.4992C22.6895 19.3175 21.7977 19.0718 20.9294 18.9641C20.8411 18.9524 20.7611 18.9062 20.7068 18.8355C20.6526 18.7648 20.6285 18.6756 20.64 18.5872C20.6518 18.4996 20.6975 18.4201 20.7674 18.3659C20.8373 18.3118 20.9258 18.2873 21.0136 18.2978C21.8818 18.4055 23.3693 18.6815 23.5881 19.3074C23.6252 19.4218 23.6274 19.5447 23.5945 19.6604C23.5615 19.776 23.4948 19.8793 23.403 19.9569C23.0126 20.3473 23.8035 21.3266 24.0963 21.6396L25.3145 22.2488C25.4369 22.1671 25.5692 22.1015 25.7083 22.0536C25.9428 21.9758 26.1948 21.9677 26.4338 22.0305C26.6728 22.0932 26.8884 22.224 27.0544 22.4069C27.7578 23.1137 28.4006 24.0896 27.0544 25.4358C26.2366 26.2536 25.0352 25.7925 24.066 25.4358C23.6588 25.281 23.1035 25.069 22.9453 25.1464C22.8579 25.1794 22.7799 25.2331 22.7178 25.3028C22.6556 25.3725 22.6113 25.4563 22.5886 25.5468C22.5939 25.7183 22.6364 25.8865 22.7131 26.0399C22.7898 26.1933 22.8988 26.3282 23.0328 26.4353C23.2549 26.6574 23.7395 26.617 24.2107 26.5766C24.8838 26.5194 25.7554 26.4488 26.0381 27.2968C26.166 27.6805 26.9232 27.7276 27.5323 27.7646C28.2054 27.805 28.9794 27.8521 28.9794 28.4983C28.9505 28.8893 28.8596 29.2733 28.7102 29.6358C28.5955 29.8963 28.5304 30.1759 28.5184 30.4603C28.7809 30.7194 30.4164 30.7194 31.2107 30.7194C31.4276 30.6968 31.6469 30.7179 31.8556 30.7815C32.0643 30.8451 32.2581 30.9499 32.4256 31.0896C32.4871 31.1502 32.5358 31.2225 32.5688 31.3023C32.6017 31.3821 32.6183 31.4677 32.6174 31.554C32.6122 31.6409 32.5735 31.7224 32.5095 31.7814C32.4455 31.8404 32.3612 31.8723 32.2741 31.8704Z" fill="black"/>
<path d="M31.7053 23.9988C31.2476 23.9988 30.8438 23.568 30.5745 23.2281C29.114 21.2796 27.4851 19.6171 27.0443 19.6171C26.8838 19.7784 26.6777 19.8865 26.4538 19.9268C26.2299 19.9671 25.999 19.9377 25.7923 19.8425C25.4809 19.7037 25.2119 19.4848 25.0127 19.2081C24.8134 18.9314 24.6911 18.6069 24.6582 18.2675C24.6582 17.7291 25.2741 17.4262 25.8664 17.1334C26.1308 17.0231 26.3788 16.8771 26.6034 16.6993L26.5832 16.6791C26.4869 16.5854 26.4112 16.4726 26.3608 16.3481C26.3103 16.2235 26.2864 16.0898 26.2904 15.9555C26.3207 15.0906 27.401 14.081 27.5255 13.9632C27.5572 13.9284 27.5958 13.9006 27.6388 13.8816C27.6819 13.8626 27.7284 13.8529 27.7755 13.853C27.8226 13.8532 27.8691 13.8632 27.912 13.8824C27.955 13.9016 27.9934 13.9296 28.0249 13.9646C28.0563 13.9996 28.0801 14.0408 28.0946 14.0856C28.1092 14.1303 28.1142 14.1776 28.1093 14.2245C28.1044 14.2713 28.0898 14.3165 28.0663 14.3573C28.0429 14.3981 28.0111 14.4335 27.9731 14.4613C27.5895 14.7978 26.9635 15.5248 26.9635 15.9724C26.9599 16.0151 26.966 16.0581 26.9811 16.0983C26.9962 16.1385 27.0201 16.1748 27.051 16.2046C27.1337 16.2775 27.1972 16.3697 27.236 16.473C27.2747 16.5763 27.2875 16.6875 27.2731 16.7969C27.2024 17.2243 26.6943 17.4699 26.1558 17.7392C25.8967 17.8671 25.3582 18.1329 25.3212 18.2709C25.3535 18.4763 25.4362 18.6704 25.5619 18.836C25.6876 19.0016 25.8523 19.1335 26.0414 19.2199C26.1281 19.2681 26.2287 19.2853 26.3265 19.2688C26.4244 19.2523 26.5137 19.203 26.5798 19.1291C26.6458 19.0643 26.7252 19.0147 26.8124 18.9839C26.8997 18.9531 26.9926 18.9417 27.0846 18.9507C28.212 19.0315 30.6318 22.1882 31.1231 22.8209C31.5505 23.3526 31.7255 23.3291 31.7289 23.3291C31.8736 23.3089 32.0654 22.7637 32.1933 22.4709C32.3212 22.0516 32.5305 21.6617 32.8092 21.3233C32.9606 21.1719 32.9404 21.0877 32.937 21.0541C32.8933 20.8555 32.5534 20.4079 30.7294 19.681C29.5885 19.2233 29.4539 18.7959 29.6053 18.2103C29.6592 18.005 29.6794 17.9377 29.5212 17.7796C29.0837 17.3421 29.0971 16.9954 29.1846 16.7699C29.3731 16.3156 30.0395 16.0969 31.2207 16.0969C31.5303 16.1251 31.8393 16.0375 32.088 15.851C32.3367 15.6645 32.5073 15.3924 32.5669 15.0873C32.5816 14.998 32.6312 14.9183 32.7047 14.8656C32.7782 14.8129 32.8697 14.7915 32.9589 14.8062C33.0482 14.821 33.1279 14.8706 33.1806 14.9441C33.2333 15.0176 33.2547 15.1091 33.2399 15.1983C33.1496 15.6593 32.8952 16.0718 32.5239 16.3596C32.1526 16.6473 31.6896 16.7907 31.2207 16.7632C30.1808 16.7632 29.8443 16.955 29.8072 17.0224C29.8072 17.0224 29.8072 17.1099 29.9957 17.2849C30.1404 17.4195 30.2424 17.5936 30.289 17.7856C30.3357 17.9776 30.325 18.1791 30.2582 18.3651C30.201 18.5805 30.1673 18.7017 30.9784 19.0382C32.6846 19.7113 33.4654 20.2767 33.5933 20.9026C33.6236 21.0633 33.6109 21.2292 33.5565 21.3834C33.5022 21.5377 33.408 21.6748 33.2837 21.781C33.0773 22.0566 32.9212 22.3665 32.8226 22.6964C32.5938 23.2853 32.3582 23.8978 31.813 23.9786C31.7779 23.9888 31.7418 23.9956 31.7053 23.9988Z" fill="black"/>
<path d="M35.1782 29.8981C35.1248 29.8978 35.0723 29.8849 35.0249 29.8603C34.9775 29.8357 34.9366 29.8002 34.9056 29.7567C34.5102 29.1657 34.1495 28.5521 33.8253 27.9192C33.7816 27.8284 33.721 27.8082 33.2196 27.9192C32.4964 28.1115 31.7285 28.0411 31.0523 27.7207C30.9287 27.6755 30.8159 27.6053 30.7208 27.5144C30.6258 27.4235 30.5506 27.3138 30.5 27.1924C30.4494 27.071 30.4245 26.9405 30.4269 26.809C30.4293 26.6774 30.4589 26.5479 30.5138 26.4284C30.884 25.5365 32.533 24.5841 33.5023 24.9106C34.2864 25.1697 34.5287 24.7692 34.9225 23.9817C35.3162 23.1942 36.4941 23.2582 37.4364 23.3086L37.7931 23.3288C37.8794 23.3332 37.9608 23.3705 38.0203 23.4332C38.0798 23.4958 38.1129 23.579 38.1128 23.6654C38.1128 23.7546 38.0774 23.8402 38.0143 23.9033C37.9512 23.9665 37.8656 24.0019 37.7763 24.0019L37.396 23.9716C36.7229 23.9312 35.7133 23.8673 35.5282 24.2644C35.1648 24.9913 34.6667 25.9875 33.2936 25.5298C32.7249 25.3413 31.3955 26.0447 31.1364 26.6707C31.0825 26.8053 31.0523 26.95 31.3551 27.1014C31.9021 27.3548 32.5218 27.4038 33.1018 27.2394C33.5662 27.1519 34.145 27.0476 34.4479 27.6163C34.7517 28.2169 35.0888 28.8 35.4575 29.363C35.4946 29.4137 35.5168 29.4737 35.5215 29.5364C35.5262 29.599 35.5133 29.6617 35.4842 29.7174C35.4552 29.773 35.4111 29.8195 35.357 29.8514C35.3029 29.8833 35.241 29.8995 35.1782 29.8981Z" fill="black"/>
<path d="M28.7435 32.5901C26.888 32.5901 25.074 32.0399 23.5311 31.0091C21.9882 29.9782 20.7856 28.5131 20.0754 26.7988C19.3651 25.0845 19.1791 23.1981 19.5409 21.3782C19.9026 19.5582 20.7959 17.8864 22.1078 16.574C23.4196 15.2617 25.0912 14.3678 26.911 14.0054C28.7308 13.643 30.6173 13.8283 32.3318 14.538C34.0463 15.2476 35.5119 16.4497 36.5433 17.9922C37.5747 19.5347 38.1256 21.3485 38.1262 23.204C38.1236 25.692 37.1343 28.0773 35.3754 29.8368C33.6164 31.5964 31.2315 32.5865 28.7435 32.5901ZM28.7435 14.4978C27.0208 14.4978 25.3367 15.0087 23.9044 15.9659C22.472 16.923 21.3557 18.2835 20.6966 19.8752C20.0375 21.4668 19.8652 23.2182 20.2015 24.9078C20.5379 26.5974 21.3677 28.1493 22.5861 29.3672C23.8045 30.5851 25.3567 31.4144 27.0464 31.7501C28.7362 32.0858 30.4875 31.9128 32.0789 31.2531C33.6703 30.5933 35.0303 29.4765 35.987 28.0438C36.9436 26.611 37.4538 24.9268 37.4532 23.204C37.4505 20.8949 36.532 18.6812 34.8992 17.0484C33.2664 15.4156 31.0526 14.4971 28.7435 14.4944V14.4978Z" fill="black"/>
</g>
</svg>
