<svg width="56" height="56" viewBox="0 0 56 56" fill="none" xmlns="http://www.w3.org/2000/svg">
<rect x="0.430664" width="54.2769" height="54.2769" rx="27.1385" fill="#EDE403"/>
<rect x="1.72314" y="1.29248" width="51.6923" height="51.6923" rx="25.8462" fill="white"/>
<g style="mix-blend-mode:multiply" clip-path="url(#clip0_407_852)">
<rect width="32.3077" height="32.3077" transform="translate(11.3076 13.0308)" fill="white"/>
<path d="M40.9821 19.2081L39.8923 18.42C39.7973 18.3515 39.6789 18.3237 39.5633 18.3425C39.4477 18.3613 39.3443 18.4253 39.2758 18.5203L38.4555 19.6561L35.32 17.3845C35.1828 17.2852 35.0117 17.2444 34.8444 17.2711C34.6771 17.2979 34.5273 17.3899 34.4278 17.5271L33.7715 18.4301L33.7495 18.4143C33.6763 18.3615 33.5928 18.3248 33.5045 18.3066C33.4162 18.2884 33.325 18.289 33.2369 18.3085C33.1488 18.328 33.0659 18.3659 32.9935 18.4196C32.9211 18.4734 32.8609 18.5419 32.8168 18.6206L32.23 19.6719C32.1537 19.8086 32.1302 19.9684 32.1639 20.1213C32.1977 20.2741 32.2863 20.4092 32.413 20.5011L32.4994 20.5642L31.6791 21.8893L31.6892 14.4011C31.6894 14.1745 31.5996 13.9572 31.4397 13.7968C31.2797 13.6363 31.0626 13.5459 30.8361 13.5454H29.4226C29.1961 13.5456 28.979 13.6357 28.8189 13.7959C28.6588 13.9561 28.5689 14.1733 28.5689 14.3998V16.8734H26.5225V14.3998C26.523 14.2874 26.5013 14.1759 26.4587 14.0719C26.4161 13.9678 26.3533 13.8732 26.2741 13.7935C26.1948 13.7137 26.1006 13.6503 25.9969 13.607C25.8931 13.5637 25.7818 13.5413 25.6694 13.541H24.2553C24.0289 13.5414 23.8119 13.6315 23.652 13.7917C23.492 13.9519 23.4022 14.169 23.4022 14.3954L23.3946 22.3322L23.0987 22.0369C22.6907 21.6274 22.1616 21.3603 21.5899 21.2753L19.0659 20.8967L18.5238 20.3502L18.7377 20.1363C18.7788 20.0953 18.8113 20.0466 18.8335 19.993C18.8557 19.9394 18.8671 19.882 18.8671 19.824C18.8671 19.766 18.8557 19.7085 18.8335 19.6549C18.8113 19.6013 18.7788 19.5526 18.7377 19.5116L17.9553 18.7292C17.8731 18.6468 17.7754 18.5815 17.6679 18.537C17.5603 18.4925 17.4451 18.4697 17.3287 18.4698C17.2122 18.4695 17.0969 18.4923 16.9893 18.5369C16.8817 18.5815 16.7841 18.6471 16.7021 18.7298L14.9738 20.4588C14.8077 20.6251 14.7144 20.8506 14.7144 21.0857C14.7144 21.3208 14.8077 21.5462 14.9738 21.7126L15.7556 22.4957C15.797 22.5371 15.8462 22.5698 15.9004 22.592C15.9545 22.6142 16.0126 22.6255 16.0711 22.625C16.1296 22.6255 16.1877 22.6142 16.2418 22.592C16.296 22.5698 16.3452 22.5371 16.3866 22.4957L16.5683 22.3133L17.1627 22.9071L17.5041 25.3516C17.5041 25.3605 17.5073 25.3693 17.5085 25.3781H16.562C16.4439 25.3775 16.3268 25.4002 16.2175 25.4449C16.1082 25.4897 16.0089 25.5557 15.9252 25.639C15.8415 25.7224 15.7751 25.8215 15.7298 25.9306C15.6846 26.0397 15.6614 26.1567 15.6616 26.2748V27.8201C15.6617 28.0574 15.7561 28.2849 15.9238 28.4526C16.0916 28.6204 16.3191 28.7147 16.5563 28.7149H17.6013L19.6205 43.3701C19.6667 43.6977 19.8294 43.9978 20.0788 44.2152C20.3282 44.4326 20.6476 44.5529 20.9785 44.5539H33.9937C34.3252 44.5529 34.6452 44.4322 34.8949 44.214C35.1445 43.9958 35.3069 43.6948 35.3522 43.3663L37.3273 28.7149H38.3666C38.6038 28.7147 38.8313 28.6204 38.9991 28.4526C39.1668 28.2849 39.2612 28.0574 39.2613 27.8201V26.2748C39.2612 26.0375 39.1668 25.81 38.9991 25.6423C38.8313 25.4745 38.6038 25.3802 38.3666 25.38H36.9014L37.7545 24.3672L37.9362 24.4985C38.0629 24.5906 38.219 24.6328 38.3748 24.6172C38.5306 24.6016 38.6752 24.5293 38.7811 24.4139L39.597 23.5305C39.6581 23.4641 39.7044 23.3855 39.7328 23.2999C39.7613 23.2143 39.7714 23.1236 39.7623 23.0339C39.7533 22.9441 39.7253 22.8573 39.6803 22.7791C39.6353 22.7009 39.5742 22.6331 39.5011 22.5802L39.3673 22.4831L40.0217 21.5788C40.071 21.5109 40.1064 21.4339 40.1259 21.3523C40.1454 21.2707 40.1486 21.186 40.1353 21.1031C40.1221 21.0203 40.0926 20.9408 40.0487 20.8693C40.0047 20.7979 39.9471 20.7358 39.8791 20.6866L39.1705 20.1736L39.7327 19.3968L40.464 19.9262C40.5589 19.9947 40.6772 20.0228 40.7927 20.0042C40.9083 19.9856 41.0118 19.9219 41.0804 19.8271C41.149 19.7323 41.1773 19.6141 41.1588 19.4985C41.1404 19.3829 41.0768 19.2794 40.9821 19.2106V19.2081ZM26.5187 17.7536H28.5657V18.3121C28.5665 18.3558 28.5585 18.3993 28.5422 18.4399C28.526 18.4805 28.5018 18.5175 28.4711 18.5487C28.4406 18.5799 28.4042 18.6046 28.364 18.6214C28.3237 18.6382 28.2806 18.6467 28.237 18.6465H26.8487C26.7612 18.6458 26.6774 18.6105 26.6159 18.5481C26.5544 18.4858 26.5201 18.4016 26.5206 18.314L26.5187 17.7536ZM24.285 14.4232H25.6385L25.6353 18.3096C25.6346 18.4692 25.6654 18.6274 25.7259 18.7752C25.7865 18.9229 25.8755 19.0573 25.9879 19.1706C26.1004 19.284 26.2341 19.374 26.3813 19.4357C26.5286 19.4973 26.6866 19.5293 26.8462 19.5299H28.2344C28.3937 19.5298 28.5514 19.4982 28.6985 19.4371C28.8455 19.376 28.9791 19.2866 29.0917 19.1738C29.2042 19.0611 29.2933 18.9273 29.3541 18.7801C29.4149 18.6329 29.4461 18.4751 29.446 18.3159L29.4491 14.4288H30.8027L30.7926 25.38H26.4455L24.2767 23.2131L24.285 14.4232ZM16.2497 21.3782L16.0705 21.558L15.5985 21.086L17.3312 19.3564L17.802 19.8265L17.2669 20.3616L16.2497 21.3782ZM17.4208 21.9278L17.1867 21.6937L17.8998 20.9806L18.1339 21.2147L18.3326 21.4135L17.6177 22.1234L17.4208 21.9278ZM18.3749 25.2311L18.0544 22.9405L19.1902 21.8047L21.4618 22.148C21.8468 22.2049 22.2032 22.3846 22.4777 22.6604L25.1999 25.38H18.4008C18.3894 25.3308 18.38 25.281 18.3749 25.2311ZM34.477 43.2483C34.4609 43.3651 34.4031 43.4722 34.3143 43.5498C34.2254 43.6273 34.1116 43.6702 33.9937 43.6705H20.9766C20.8589 43.6702 20.7453 43.6275 20.6566 43.5502C20.5679 43.4729 20.5101 43.3661 20.4938 43.2496L18.4929 28.7149H36.4357L34.477 43.2483ZM38.3779 26.2742V27.8195C38.3779 27.821 38.3776 27.8225 38.3771 27.8238C38.3765 27.8252 38.3756 27.8265 38.3746 27.8275C38.3735 27.8286 38.3723 27.8294 38.3709 27.83C38.3695 27.8306 38.3681 27.8309 38.3666 27.8309H16.5563C16.5549 27.8309 16.5534 27.8306 16.552 27.83C16.5506 27.8294 16.5494 27.8286 16.5483 27.8275C16.5473 27.8265 16.5464 27.8252 16.5459 27.8238C16.5453 27.8225 16.545 27.821 16.545 27.8195V26.2748C16.545 26.2733 16.5453 26.2718 16.5459 26.2704C16.5464 26.2691 16.5473 26.2678 16.5483 26.2668C16.5494 26.2657 16.5506 26.2649 16.552 26.2643C16.5534 26.2637 16.5549 26.2634 16.5563 26.2634H38.3666C38.3696 26.2634 38.3725 26.2646 38.3746 26.2668C38.3767 26.2689 38.3779 26.2718 38.3779 26.2748V26.2742ZM35.7466 25.3794H31.6785V23.5722L33.2169 21.0822L37.0358 23.8467L35.7466 25.3794ZM38.2782 23.6548L33.1084 19.9123L33.4554 19.2908L38.7603 23.1311L38.2782 23.6548ZM38.6518 21.9618L37.6996 21.2721L34.4884 18.9481L34.9995 18.242L39.1642 21.2564L38.6518 21.9618Z" fill="black"/>
<path d="M21.71 37.6674H22.2306C22.3394 38.0272 22.4853 38.3746 22.666 38.7042L22.295 39.0752C22.1399 39.2308 22.0528 39.4414 22.0528 39.6611C22.0528 39.8808 22.1399 40.0915 22.295 40.247L23.326 41.2781C23.4029 41.3551 23.4942 41.4162 23.5948 41.4579C23.6953 41.4996 23.8031 41.521 23.9119 41.521C24.0207 41.521 24.1285 41.4996 24.2291 41.4579C24.3296 41.4162 24.4209 41.3551 24.4978 41.2781L24.8764 40.8995C25.2048 41.0758 25.5503 41.2183 25.9075 41.3248V41.8586C25.9076 42.0779 25.9945 42.2881 26.1491 42.4436C26.3038 42.599 26.5136 42.687 26.7328 42.6884H28.1905C28.4103 42.688 28.621 42.6006 28.7764 42.4452C28.9318 42.2897 29.0193 42.079 29.0196 41.8592V41.3254C29.3761 41.2194 29.7209 41.0775 30.0488 40.902L30.4274 41.2806C30.5043 41.3576 30.5957 41.4187 30.6963 41.4605C30.7969 41.5022 30.9047 41.5236 31.0136 41.5236C31.1225 41.5236 31.2303 41.5022 31.3309 41.4605C31.4315 41.4187 31.5229 41.3576 31.5998 41.2806L32.6309 40.2495C32.786 40.094 32.8731 39.8833 32.8731 39.6636C32.8731 39.444 32.786 39.2333 32.6309 39.0777L32.2573 38.7042C32.4373 38.3745 32.5826 38.0271 32.6908 37.6674H33.2114C33.4311 37.6673 33.6417 37.5799 33.7971 37.4246C33.9524 37.2692 34.0398 37.0586 34.0399 36.8389V35.3806C34.0398 35.161 33.9524 34.9503 33.7971 34.795C33.6417 34.6396 33.4311 34.5523 33.2114 34.5521H32.7028C32.5959 34.1877 32.4512 33.8353 32.2712 33.5009L32.6284 33.1444C32.7835 32.9888 32.8706 32.7781 32.8706 32.5585C32.8706 32.3388 32.7835 32.1281 32.6284 31.9726L31.5973 30.9415C31.5203 30.8645 31.429 30.8033 31.3284 30.7616C31.2278 30.7199 31.12 30.6985 31.0111 30.6985C30.9022 30.6985 30.7944 30.7199 30.6938 30.7616C30.5932 30.8033 30.5018 30.8645 30.4249 30.9415L30.074 31.2923C29.7384 31.1084 29.3844 30.9603 29.0177 30.8506V30.3584C29.0174 30.1386 28.9299 29.9279 28.7745 29.7725C28.6191 29.6171 28.4084 29.5296 28.1886 29.5293H26.7309C26.5111 29.5296 26.3004 29.6171 26.145 29.7725C25.9896 29.9279 25.9021 30.1386 25.9018 30.3584V30.8532C25.5351 30.9628 25.1811 31.1109 24.8455 31.2949L24.4959 30.9415C24.419 30.8645 24.3276 30.8033 24.227 30.7616C24.1264 30.7199 24.0186 30.6985 23.9097 30.6985C23.8008 30.6985 23.693 30.7199 23.5924 30.7616C23.4918 30.8033 23.4004 30.8645 23.3235 30.9415L22.2924 31.9726C22.1373 32.1281 22.0502 32.3388 22.0502 32.5585C22.0502 32.7781 22.1373 32.9888 22.2924 33.1444L22.6496 33.5009C22.4696 33.8353 22.3249 34.1877 22.218 34.5521H21.7094C21.4897 34.5523 21.2791 34.6396 21.1237 34.795C20.9684 34.9503 20.881 35.161 20.8809 35.3806V36.8389C20.881 37.0587 20.9685 37.2694 21.1239 37.4248C21.2794 37.5802 21.4902 37.6674 21.71 37.6674ZM21.7649 35.4355H22.2571C22.4372 35.4356 22.6125 35.3772 22.7565 35.2691C22.9006 35.161 23.0057 35.009 23.0559 34.8361C23.1501 34.506 23.2809 34.1874 23.4459 33.8864C23.5304 33.7296 23.5622 33.5499 23.5367 33.3736C23.5111 33.1974 23.4295 33.034 23.3039 32.9077L22.9569 32.5607L23.9103 31.6072L24.2517 31.9486C24.3788 32.0751 24.5435 32.1571 24.7211 32.1821C24.8987 32.2071 25.0796 32.1739 25.2367 32.0874C25.538 31.9194 25.8575 31.7862 26.1889 31.6905C26.3617 31.6393 26.5133 31.5336 26.6212 31.3892C26.729 31.2448 26.7872 31.0694 26.7871 30.8891V30.4133H28.1362V30.8885C28.1361 31.0687 28.1944 31.2441 28.3022 31.3886C28.41 31.533 28.5616 31.6387 28.7344 31.6899C29.0659 31.7858 29.3853 31.9192 29.6866 32.0874C29.8439 32.1736 30.025 32.2064 30.2025 32.1811C30.3801 32.1557 30.5447 32.0735 30.6716 31.9467L31.013 31.6053L31.9664 32.5588L31.6194 32.9065C31.4933 33.0328 31.4113 33.1965 31.3856 33.3731C31.3599 33.5498 31.3919 33.73 31.4768 33.887C31.6423 34.1879 31.7733 34.5065 31.8674 34.8367C31.9177 35.0097 32.0227 35.1616 32.1668 35.2697C32.3109 35.3778 32.4861 35.4362 32.6662 35.4362H33.1584V36.7846H32.6536C32.4745 36.7848 32.3002 36.8426 32.1566 36.9496C32.0129 37.0565 31.9075 37.2069 31.856 37.3784C31.7605 37.7043 31.6291 38.0186 31.4641 38.3155C31.3777 38.4727 31.3446 38.6537 31.3699 38.8313C31.3951 39.009 31.4774 39.1736 31.6042 39.3005L31.9652 39.662L31.0117 40.6155L30.6451 40.2489C30.5187 40.1226 30.355 40.0405 30.1782 40.0148C30.0013 39.9891 29.821 40.0212 29.6639 40.1063C29.3676 40.2691 29.0542 40.3984 28.7294 40.4918C28.5578 40.5425 28.4071 40.6473 28.3 40.7906C28.1929 40.9339 28.135 41.108 28.1349 41.2869V41.805H26.7871V41.2844C26.7871 41.1055 26.7292 40.9313 26.622 40.7881C26.5149 40.6448 26.3643 40.54 26.1927 40.4893C25.8679 40.3958 25.5544 40.2665 25.2582 40.1038C25.1011 40.0186 24.9207 39.9865 24.7439 40.0122C24.5671 40.0379 24.4033 40.12 24.277 40.2464L23.9103 40.613L22.9569 39.6595L23.3178 39.2986C23.4447 39.1717 23.5269 39.0071 23.5522 38.8295C23.5774 38.6518 23.5444 38.4708 23.4579 38.3136C23.293 38.0167 23.1616 37.7024 23.066 37.3765C23.0145 37.205 22.9091 37.0546 22.7655 36.9477C22.6218 36.8407 22.4475 36.7829 22.2684 36.7828H21.7636L21.7649 35.4355Z" fill="black"/>
<path d="M24.0164 37.5143C24.0309 37.5143 24.046 37.5143 24.0612 37.5143L24.4934 37.4619C24.6949 38.033 25.0549 38.5349 25.5311 38.909C26.0073 39.2831 26.5802 39.5139 27.1828 39.5745C27.2876 39.5852 27.3929 39.5904 27.4983 39.5903C28.0796 39.5912 28.6499 39.4314 29.1462 39.1287C29.6425 38.8259 30.0455 38.3919 30.3107 37.8746C30.3607 37.771 30.3683 37.652 30.3319 37.5428C30.2955 37.4337 30.218 37.3431 30.1158 37.2902C30.0137 37.2374 29.8949 37.2265 29.7848 37.2598C29.6747 37.2932 29.582 37.3682 29.5263 37.4688C29.3282 37.8513 29.0263 38.1702 28.6552 38.3888C28.2841 38.6075 27.8588 38.7171 27.4283 38.705C26.9977 38.693 26.5793 38.5598 26.221 38.3207C25.8627 38.0816 25.5791 37.7463 25.4027 37.3534L25.8646 37.2978C25.9397 37.2889 26.0105 37.2577 26.0677 37.2082C26.1249 37.1587 26.166 37.0931 26.1856 37.0201C26.2052 36.947 26.2025 36.8697 26.1778 36.7982C26.1531 36.7267 26.1075 36.6642 26.0469 36.6189L25.0405 35.8673C24.9624 35.809 24.8649 35.783 24.7682 35.7948C24.6714 35.8065 24.583 35.8551 24.5212 35.9304L23.7242 36.8984C23.6796 36.9538 23.6515 37.0207 23.6432 37.0914C23.6349 37.1621 23.6467 37.2337 23.6772 37.2979C23.7077 37.3622 23.7557 37.4166 23.8156 37.4549C23.8756 37.4931 23.9452 37.5137 24.0164 37.5143Z" fill="black"/>
<path d="M24.7893 34.8007C24.8901 34.8601 25.0104 34.8771 25.1238 34.8479C25.2371 34.8187 25.3342 34.7456 25.3938 34.6449C25.6125 34.2727 25.9318 33.9699 26.3151 33.7714C26.6984 33.5729 27.13 33.4867 27.5601 33.5227C27.9902 33.5588 28.4014 33.7157 28.7463 33.9753C29.0911 34.2349 29.3556 34.5866 29.5092 34.99L29.0871 35.0405C29.012 35.0495 28.9413 35.0808 28.8842 35.1304C28.8271 35.1799 28.7861 35.2455 28.7665 35.3185C28.747 35.3916 28.7498 35.4688 28.7745 35.5403C28.7992 35.6117 28.8448 35.6741 28.9053 35.7195L29.879 36.4489C29.957 36.5073 30.0546 36.5332 30.1513 36.5215C30.248 36.5097 30.3365 36.4611 30.3983 36.3858L31.1719 35.4462C31.22 35.3879 31.2495 35.3164 31.2566 35.2411C31.2636 35.1658 31.248 35.0901 31.2117 35.0238C31.1754 34.9575 31.12 34.9035 31.0528 34.8689C30.9855 34.8344 30.9094 34.8207 30.8343 34.8298L30.4053 34.8815C30.2271 34.2909 29.8807 33.765 29.4084 33.3682C28.9361 32.9714 28.3584 32.7209 27.7459 32.6472C27.1335 32.5736 26.5128 32.68 25.9599 32.9536C25.407 33.2271 24.9458 33.6559 24.6328 34.1874C24.602 34.2377 24.5816 34.2937 24.5728 34.3521C24.564 34.4104 24.567 34.4699 24.5816 34.5271C24.5962 34.5843 24.6221 34.6379 24.6577 34.6849C24.6934 34.7319 24.7381 34.7713 24.7893 34.8007Z" fill="black"/>
</g>
<defs>
<clipPath id="clip0_407_852">
<rect width="32.3077" height="32.3077" fill="white" transform="translate(11.3076 13.0308)"/>
</clipPath>
</defs>
</svg>
