<svg width="56" height="56" viewBox="0 0 56 56" fill="none" xmlns="http://www.w3.org/2000/svg">
<rect x="1.29248" y="1.29248" width="54.2769" height="54.2769" rx="27.1385" fill="#04C95F"/>
<rect x="2.58447" y="2.58447" width="51.6923" height="51.6923" rx="25.8462" fill="white"/>
<g style="mix-blend-mode:multiply" clip-path="url(#clip0_407_913)">
<rect width="37.3756" height="39.8673" transform="translate(10.3384 7.75391)" fill="white"/>
<path d="M43.4532 40.1888H18.9912V27.9989C23.1332 27.8627 24.8727 25.7517 25.6027 23.9717C25.851 23.3849 25.9154 22.7283 25.7866 22.0994C25.6577 21.4704 25.3424 20.9024 24.8873 20.4794C24.4336 20.0391 23.8589 19.7665 23.2485 19.7021C22.6381 19.6377 22.0245 19.785 21.4987 20.122C19.8329 21.1615 18.9883 22.7531 18.5612 24.1656C18.1342 22.7531 17.2896 21.1615 15.6238 20.122C15.0988 19.784 14.4855 19.6358 13.8752 19.6995C13.2649 19.7632 12.6902 20.0354 12.2366 20.4755C11.781 20.8981 11.4652 21.466 11.336 22.095C11.2067 22.724 11.2709 23.3808 11.519 23.9678C12.249 25.7478 13.99 27.8611 18.1305 27.995V40.1888H11.3978C11.2868 40.1937 11.1818 40.2442 11.1048 40.3297C11.0278 40.4153 10.9849 40.5293 10.9849 40.6478C10.9849 40.7664 11.0278 40.8804 11.1048 40.9659C11.1818 41.0515 11.2868 41.102 11.3978 41.1069H43.4532C43.5112 41.1094 43.5691 41.0994 43.6234 41.0775C43.6777 41.0556 43.7273 41.0222 43.7692 40.9793C43.811 40.9364 43.8444 40.885 43.8671 40.828C43.8899 40.771 43.9016 40.7098 43.9016 40.6478C43.9016 40.5859 43.8899 40.5246 43.8671 40.4677C43.8444 40.4107 43.811 40.3592 43.7692 40.3164C43.7273 40.2735 43.6777 40.2401 43.6234 40.2182C43.5691 40.1963 43.5112 40.1863 43.4532 40.1888ZM21.9338 20.9132C22.2425 20.715 22.5955 20.6093 22.9558 20.6071C23.4561 20.6124 23.9379 20.8098 24.3128 21.1631C24.8355 21.6591 25.2399 22.56 24.8122 23.6019C23.9756 25.6419 22.2404 26.7944 19.6453 27.0373L22.9032 23.5606C22.9454 23.5186 22.9792 23.468 23.0026 23.4118C23.0261 23.3556 23.0387 23.2949 23.0397 23.2334C23.0407 23.1718 23.0301 23.1107 23.0085 23.0537C22.9869 22.9966 22.9548 22.9448 22.914 22.9013C22.8732 22.8577 22.8247 22.8234 22.7712 22.8003C22.7178 22.7772 22.6605 22.7658 22.6028 22.7668C22.5451 22.7678 22.4882 22.7812 22.4355 22.8061C22.3828 22.831 22.3353 22.867 22.2959 22.912L19.0204 26.4027C19.1299 25.0751 19.6387 22.3428 21.9338 20.9132ZM12.3096 23.5995C11.8818 22.5577 12.2877 21.6568 12.8096 21.1608C13.184 20.8065 13.6655 20.608 14.166 20.6017C14.5262 20.6038 14.8793 20.7095 15.1879 20.9077C17.4735 22.3342 17.9867 25.0681 18.0984 26.3996L14.8273 22.9135C14.7883 22.8675 14.7408 22.8304 14.6879 22.8045C14.635 22.7786 14.5777 22.7645 14.5195 22.7629C14.4613 22.7613 14.4034 22.7724 14.3494 22.7954C14.2953 22.8184 14.2462 22.8528 14.205 22.8967C14.1638 22.9405 14.1313 22.9929 14.1096 23.0505C14.0879 23.1081 14.0774 23.1698 14.0788 23.2319C14.0801 23.294 14.0933 23.3551 14.1174 23.4116C14.1415 23.4681 14.1762 23.5188 14.2192 23.5606L17.475 27.0334C14.8814 26.7912 13.1454 25.6388 12.3096 23.5995Z" fill="black"/>
<path d="M46.9586 22.3575C46.9187 22.3147 46.8713 22.2807 46.8191 22.2576C46.7668 22.2344 46.7108 22.2225 46.6542 22.2225C46.5976 22.2225 46.5416 22.2344 46.4894 22.2576C46.4371 22.2807 46.3897 22.3147 46.3498 22.3575L44.6803 24.1391C44.5987 24.2469 44.5544 24.3813 44.5548 24.5198C44.5572 25.4845 44.3803 26.4401 44.0342 27.3313C43.6881 28.2225 43.1798 29.0317 42.5385 29.7119L34.2225 38.5816C34.0243 38.7836 33.7607 38.8964 33.4866 38.8964C33.2125 38.8964 32.949 38.7836 32.7508 38.5816C32.5598 38.3774 32.4507 38.102 32.4466 37.8135C32.4425 37.5251 32.5437 37.2463 32.7289 37.036L36.2095 33.3233C36.27 33.2581 36.3108 33.1751 36.327 33.085C36.3431 32.9948 36.3337 32.9016 36.3 32.8172C36.2794 32.7624 36.2486 32.7126 36.2095 32.6708C36.1286 32.5847 36.019 32.5364 35.9047 32.5364C35.7905 32.5364 35.6808 32.5847 35.6 32.6708L31.147 37.4206C30.9509 37.6244 30.6875 37.7375 30.4137 37.7356C30.14 37.7336 29.878 37.6167 29.6844 37.4102C29.4909 37.2036 29.3815 36.9241 29.3798 36.6321C29.3781 36.3401 29.4843 36.0592 29.6754 35.8501L32.3479 33.0002L34.129 31.1003C34.1709 31.058 34.2044 31.0072 34.2275 30.951C34.2507 30.8947 34.263 30.834 34.2638 30.7725C34.2646 30.7111 34.2539 30.6501 34.2322 30.5931C34.2106 30.5361 34.1784 30.4844 34.1377 30.4409C34.097 30.3974 34.0485 30.363 33.9951 30.3399C33.9417 30.3167 33.8845 30.3052 33.8269 30.3059C33.7693 30.3067 33.7124 30.3198 33.6596 30.3444C33.6068 30.3691 33.5592 30.4047 33.5195 30.4493L31.7383 32.3492L27.8431 36.5042C27.7474 36.6116 27.6325 36.6976 27.5052 36.7569C27.3778 36.8163 27.2406 36.8479 27.1017 36.8498C26.9627 36.8517 26.8249 36.8239 26.6961 36.7681C26.5674 36.7122 26.4505 36.6294 26.3522 36.5246C26.254 36.4198 26.1764 36.2951 26.124 36.1578C26.0717 36.0205 26.0456 35.8734 26.0474 35.7252C26.0492 35.577 26.0788 35.4307 26.1344 35.2948C26.1901 35.159 26.2707 35.0365 26.3714 34.9344L30.2674 30.781L30.2732 30.774L32.0478 28.8803C32.1284 28.7937 32.1733 28.6765 32.1729 28.5545C32.1724 28.4325 32.1265 28.3157 32.0453 28.2298C31.9641 28.1438 31.8542 28.0959 31.7398 28.0964C31.6254 28.0969 31.5159 28.1459 31.4354 28.2325L29.6629 30.1238L29.6542 30.1324L26.7488 33.2322C26.5518 33.4388 26.286 33.5533 26.0098 33.5508C25.7336 33.5482 25.4697 33.4287 25.2761 33.2186C25.0825 33.0085 24.975 32.7249 24.9774 32.4303C24.9798 32.1357 25.0918 31.8542 25.2888 31.6477L28.9855 27.7046C29.7396 27.6469 30.4871 27.2272 31.2156 26.4517L33.594 23.9133C34.3765 24.2162 36.6205 24.8391 38.9003 23.2327C38.9936 23.1646 39.058 23.0601 39.0797 22.9418C39.1014 22.8234 39.0786 22.7007 39.0162 22.6001C38.9538 22.4995 38.8569 22.4292 38.7463 22.4042C38.6357 22.3792 38.5203 22.4016 38.425 22.4665C36.0745 24.1235 33.7721 23.0061 33.675 22.9586C33.5945 22.9185 33.5045 22.9057 33.417 22.922C33.3295 22.9383 33.2488 22.9829 33.1859 23.0497L30.6054 25.8015C30.009 26.44 29.4133 26.7678 28.8534 26.7904C28.8213 26.7869 28.7891 26.7869 28.757 26.7904C28.7088 26.7904 28.6614 26.7865 28.611 26.7811C27.8986 26.6939 27.3489 26.12 27.0707 25.7626L32.7194 19.7451C33.0975 19.34 33.5472 19.0188 34.0424 18.8002C34.5375 18.5815 35.0684 18.4697 35.6043 18.4712H38.5243C38.6384 18.4703 38.7476 18.422 38.8287 18.3365L41.9056 15.0545C41.9458 15.0114 41.9775 14.9603 41.9991 14.9041C42.0207 14.8479 42.0317 14.7877 42.0315 14.727C42.0313 14.6662 42.0199 14.6061 41.9979 14.5501C41.976 14.4941 41.9438 14.4432 41.9034 14.4004C41.863 14.3576 41.8151 14.3237 41.7624 14.3007C41.7098 14.2776 41.6533 14.2659 41.5964 14.2661C41.5395 14.2663 41.4831 14.2785 41.4306 14.302C41.3781 14.3254 41.3304 14.3596 41.2903 14.4027L38.3433 17.5493H35.6043C34.9552 17.5476 34.3122 17.6832 33.7126 17.9483C33.1129 18.2133 32.5684 18.6025 32.1106 19.0934L26.2042 25.3935C26.1361 25.4667 26.093 25.5623 26.0818 25.6648C26.0707 25.7674 26.0922 25.8709 26.1429 25.9588C26.1736 26.0125 26.8196 27.1128 27.9212 27.5418L24.68 30.9991C24.4347 31.2576 24.2601 31.5826 24.175 31.9391C24.0898 32.2956 24.0973 32.6701 24.1967 33.0223C24.2961 33.3746 24.4836 33.6913 24.739 33.9385C24.9944 34.1856 25.3082 34.3539 25.6465 34.4251C25.3327 34.8262 25.176 35.3408 25.209 35.862C25.242 36.3831 25.4621 36.8707 25.8235 37.2231C26.1849 37.5755 26.6599 37.7657 27.1494 37.7541C27.639 37.7424 28.1055 37.5298 28.4519 37.1606L28.5497 37.0562C28.6179 37.3976 28.7674 37.7144 28.9837 37.9762C29.2001 38.238 29.4761 38.4359 29.7851 38.5507C30.094 38.6656 30.4255 38.6936 30.7476 38.6321C31.0696 38.5705 31.3714 38.4215 31.6237 38.1993C31.6922 38.5586 31.8506 38.8913 32.0822 39.1622C32.3139 39.4331 32.61 39.6319 32.9391 39.7376C33.2682 39.8433 33.618 39.8518 33.9513 39.7624C34.2847 39.6729 34.589 39.4887 34.832 39.2295L43.1481 30.3606C44.5701 28.8457 45.382 26.7988 45.4111 24.6553L46.9564 23.0061C46.9966 22.9638 47.0285 22.9133 47.0504 22.8578C47.0722 22.8022 47.0836 22.7426 47.0838 22.6823C47.084 22.622 47.073 22.5623 47.0516 22.5066C47.0301 22.4509 46.9985 22.4002 46.9586 22.3575Z" fill="black"/>
</g>
<defs>
<clipPath id="clip0_407_913">
<rect width="37.3756" height="39.8673" fill="white" transform="translate(10.3384 7.75391)"/>
</clipPath>
</defs>
</svg>
