<svg width="17" height="17" viewBox="0 0 17 17" fill="none" xmlns="http://www.w3.org/2000/svg">
<path d="M3.49875 8.5C3.49875 8.26532 3.689 8.10156 3.92375 8.10156L12.0276 8.10156L8.89718 5.0498C8.72864 4.88624 8.72472 4.61045 8.88801 4.44225C8.97142 4.35625 9.08225 4.30976 9.19308 4.30976C9.29973 4.30976 9.40664 4.34802 9.48899 4.4281L13.3715 8.19579C13.4541 8.27588 13.5005 8.38538 13.5005 8.5004C13.5005 8.61541 13.4541 8.72518 13.3715 8.80527L9.48899 12.5734C9.32111 12.7367 9.05177 12.7328 8.88801 12.5641C8.72472 12.3959 8.72864 12.1133 8.89718 11.9498L12.0276 8.89844L3.92381 8.89844C3.68907 8.89844 3.49875 8.73468 3.49875 8.5ZM0 8.5C0 13.1868 3.81318 17 8.5 17C13.1868 17 17 13.1868 17 8.5C17 3.81318 13.1868 0 8.5 0C3.81318 0 0 3.81318 0 8.5ZM0.85 8.5C0.85 4.28181 4.28181 0.85 8.5 0.85C12.7182 0.85 16.15 4.28181 16.15 8.5C16.15 12.7182 12.7182 16.15 8.5 16.15C4.28181 16.15 0.85 12.7182 0.85 8.5Z" fill="black" fill-opacity="0.8"/>
</svg>
