<svg width="15" height="15" viewBox="0 0 15 15" fill="none" xmlns="http://www.w3.org/2000/svg">
<path d="M0 0.500002V14.5C0 14.7812 0.218752 15 0.500002 15H14.5C14.7812 15 15 14.7812 15 14.5V0.500002C15 0.218752 14.7812 0 14.5 0H0.500002C0.218752 0 0 0.218752 0 0.500002ZM8.75 11.125C8.71875 11.2188 8.625 11.25 8.5 11.25H6.375C6.1875 11.25 6.03125 11.0625 6.125 10.9062L8 8.59375H3.59375C3.4375 8.59375 3.3125 8.5 3.3125 8.34375V6.46875C3.3125 6.34375 3.4375 6.21875 3.59375 6.21875H7.9375L6.15625 4.0625C6.0625 3.90625 6.1875 3.71875 6.40625 3.71875H8.53125C8.625 3.71875 8.71875 3.78126 8.78125 3.84376L11.6875 7.5L8.75 11.125Z" fill="black"/>
</svg>
