<svg width="130" height="130" viewBox="0 0 130 130" fill="none" xmlns="http://www.w3.org/2000/svg">
<rect x="3" y="3" width="124" height="124" rx="62" stroke="#F59C1C" stroke-width="2"/>
<path d="M100.976 78.9951C102.623 78.162 103.945 76.8046 104.735 75.1368C105.525 73.4691 105.737 71.5859 105.338 69.7841C104.939 67.9824 103.952 66.3646 102.532 65.1859C101.113 64.0072 99.3409 63.3346 97.4966 63.2741C95.6522 63.2137 93.8402 63.7688 92.3463 64.852C90.8523 65.9351 89.7613 67.4848 89.2454 69.2565C88.7295 71.0282 88.8179 72.9213 89.4968 74.6372C90.1757 76.3531 91.4064 77.7943 92.9948 78.7334C90.9228 79.5796 89.2041 81.1115 88.126 83.0729L84.5081 89.6486L78.9832 82.2324C78.895 82.1141 78.7805 82.0181 78.6487 81.952C78.5168 81.886 78.3714 81.8516 78.2239 81.8518H75.3335V78.0079C75.3307 76.0634 74.7218 74.1683 73.5915 72.5861C72.4613 71.0039 70.8659 69.8134 69.0275 69.1802C70.2716 68.2806 71.1986 67.0098 71.6755 65.5505C72.1524 64.0911 72.1546 62.5182 71.6818 61.0575C71.209 59.5968 70.2855 58.3235 69.0439 57.4204C67.8024 56.5172 66.3065 56.0308 64.7712 56.0308C63.2359 56.0308 61.7401 56.5172 60.4985 57.4204C59.257 58.3235 58.3335 59.5968 57.8607 61.0575C57.3879 62.5182 57.3901 64.0911 57.867 65.5505C58.3439 67.0098 59.2709 68.2806 60.515 69.1802C58.6764 69.8131 57.0809 71.0036 55.9506 72.5858C54.8203 74.1681 54.2115 76.0634 54.209 78.0079V81.8518H51.3186C51.1711 81.8516 51.0257 81.886 50.8938 81.952C50.762 82.0181 50.6475 82.1141 50.5593 82.2324L45.0324 89.6486L41.4165 83.0729C40.3379 81.1119 38.6194 79.5802 36.5477 78.7334C38.1367 77.7942 39.3679 76.3528 40.0472 74.6364C40.7264 72.9201 40.815 71.0265 40.2991 69.2542C39.7831 67.4819 38.6919 65.9318 37.1976 64.8483C35.7032 63.7647 33.8907 63.2094 32.0458 63.2699C30.2009 63.3304 28.4287 64.0032 27.0085 65.1823C25.5883 66.3614 24.601 67.9797 24.2022 69.782C23.8034 71.5842 24.0159 73.468 24.8061 75.1362C25.5963 76.8043 26.9193 78.162 28.5665 78.9951C27.0544 79.7619 25.7842 80.9324 24.8965 82.3768C24.0088 83.8212 23.5383 85.4831 23.5371 87.1785V102.935C23.5371 103.185 23.6367 103.426 23.8141 103.603C23.9914 103.781 24.2319 103.88 24.4827 103.88C24.7335 103.88 24.974 103.781 25.1514 103.603C25.3287 103.426 25.4283 103.185 25.4283 102.935V87.1785C25.4304 85.2473 26.1984 83.3958 27.5638 82.03C28.9292 80.6642 30.7805 79.8958 32.7117 79.8931H32.8465C34.2596 79.8946 35.6465 80.2749 36.8627 80.9946C38.0788 81.7142 39.0798 82.7468 39.7612 83.9848L44.0868 91.8491C44.0868 91.8491 44.0967 91.8669 44.1007 91.8768L44.9789 93.4727C45.0607 93.6208 45.1807 93.7444 45.3264 93.8305C45.4721 93.9166 45.6382 93.9621 45.8075 93.9623H54.9147C55.493 93.9623 56.0477 94.1921 56.4567 94.601C56.8656 95.01 57.0954 95.5646 57.0954 96.143C57.0954 96.7213 56.8656 97.276 56.4567 97.6849C56.0477 98.0939 55.493 98.3236 54.9147 98.3236H43.9559C43.429 98.325 42.91 98.195 42.4458 97.9454C41.9817 97.6959 41.587 97.3346 41.2975 96.8943C41.2776 96.8577 41.2551 96.8226 41.2301 96.7892L36.1016 88.4631C36.0385 88.3535 35.954 88.2577 35.8531 88.1813C35.7522 88.105 35.6371 88.0496 35.5145 88.0186C35.3918 87.9875 35.2642 87.9814 35.1392 88.0005C35.0142 88.0197 34.8942 88.0637 34.7865 88.1301C34.6788 88.1964 34.5855 88.2836 34.5121 88.3867C34.4387 88.4897 34.3868 88.6064 34.3593 88.7299C34.3318 88.8534 34.3294 88.9811 34.3522 89.1056C34.375 89.23 34.4225 89.3486 34.4919 89.4543L39.331 97.3185L32.7038 106.188C32.6235 106.287 32.564 106.401 32.5289 106.523C32.4938 106.646 32.4838 106.774 32.4996 106.901C32.5154 107.027 32.5565 107.149 32.6206 107.259C32.6847 107.369 32.7704 107.466 32.8725 107.542C32.9746 107.618 33.0911 107.673 33.215 107.703C33.3388 107.733 33.4674 107.738 33.5931 107.717C33.7188 107.696 33.839 107.65 33.9465 107.581C34.0539 107.513 34.1464 107.423 34.2183 107.318L40.5184 98.8668C41.4567 99.7276 42.6826 100.207 43.9559 100.211H54.9207C55.9848 100.187 56.9974 99.7482 57.7416 98.9873C58.4859 98.2264 58.9027 97.2044 58.9027 96.14C58.9027 95.0756 58.4859 94.0536 57.7416 93.2927C56.9974 92.5318 55.9848 92.0926 54.9207 92.0691H46.3666L46.0335 91.4744L51.7924 83.743H77.7501L83.4991 91.4744L83.166 92.0691H74.6278C73.5637 92.0926 72.5511 92.5318 71.8068 93.2927C71.0625 94.0536 70.6458 95.0756 70.6458 96.14C70.6458 97.2044 71.0625 98.2264 71.8068 98.9873C72.5511 99.7482 73.5637 100.187 74.6278 100.211H85.5866C86.8575 100.206 88.081 99.7274 89.0181 98.8688L95.3182 107.32C95.4721 107.509 95.6932 107.632 95.9355 107.662C96.1777 107.692 96.4222 107.628 96.6178 107.482C96.8135 107.336 96.9451 107.12 96.9852 106.879C97.0252 106.638 96.9706 106.391 96.8328 106.19L90.2115 97.3047L95.0486 89.4424C95.1137 89.3369 95.1573 89.2195 95.1771 89.0971C95.1968 88.9746 95.1922 88.8495 95.1636 88.7288C95.135 88.6082 95.0829 88.4943 95.0102 88.3938C94.9376 88.2933 94.8459 88.208 94.7403 88.143C94.6348 88.0779 94.5174 88.0342 94.395 88.0145C94.2726 87.9948 94.1474 87.9993 94.0268 88.028C93.9061 88.0566 93.7922 88.1087 93.6917 88.1813C93.5912 88.2539 93.506 88.3456 93.4409 88.4512L88.3144 96.7912C88.2927 96.8204 88.2728 96.8508 88.2549 96.8824C87.9654 97.3256 87.5696 97.6893 87.1035 97.9404C86.6374 98.1914 86.1159 98.3218 85.5866 98.3197H74.6278C74.0494 98.3197 73.4948 98.0899 73.0858 97.681C72.6769 97.272 72.4471 96.7173 72.4471 96.139C72.4471 95.5607 72.6769 95.006 73.0858 94.597C73.4948 94.1881 74.0494 93.9584 74.6278 93.9584H83.735C83.9043 93.9582 84.0704 93.9127 84.2161 93.8266C84.3618 93.7405 84.4818 93.6169 84.5636 93.4687L85.4359 91.8828C85.4498 91.859 85.4636 91.8332 85.4755 91.8074L89.7813 83.9848C90.463 82.7463 91.4646 81.7135 92.6815 80.9941C93.8985 80.2748 95.2863 79.8952 96.7 79.8951H96.8348C98.766 79.8978 100.617 80.6662 101.983 82.032C103.348 83.3977 104.116 85.2493 104.118 87.1805V102.937C104.118 103.187 104.218 103.428 104.395 103.605C104.572 103.783 104.813 103.882 105.064 103.882C105.315 103.882 105.555 103.783 105.732 103.605C105.91 103.428 106.009 103.187 106.009 102.937V87.1785C106.008 85.4827 105.537 83.8205 104.648 82.376C103.76 80.9316 102.489 79.7614 100.976 78.9951ZM25.8962 71.5829C25.8962 70.3129 26.2728 69.0715 26.9783 68.0155C27.6839 66.9596 28.6867 66.1366 29.86 65.6506C31.0333 65.1646 32.3243 65.0375 33.5699 65.2852C34.8154 65.533 35.9596 66.1445 36.8576 67.0425C37.7556 67.9405 38.3671 69.0846 38.6149 70.3302C38.8626 71.5758 38.7355 72.8668 38.2495 74.0401C37.7635 75.2134 36.9405 76.2162 35.8845 76.9218C34.8286 77.6273 33.5872 78.0039 32.3172 78.0039C30.6149 78.0018 28.9829 77.3246 27.7792 76.1209C26.5755 74.9172 25.8983 73.2852 25.8962 71.5829ZM59.3989 63.3004C59.3989 62.2373 59.7142 61.1982 60.3048 60.3144C60.8954 59.4305 61.7349 58.7417 62.717 58.335C63.6992 57.9282 64.7799 57.8219 65.8224 58.0295C66.865 58.237 67.8226 58.749 68.5741 59.5009C69.3257 60.2527 69.8374 61.2105 70.0445 62.2531C70.2517 63.2958 70.145 64.3764 69.7379 65.3584C69.3308 66.3404 68.6417 67.1796 67.7576 67.7699C66.8735 68.3602 65.8343 68.6751 64.7712 68.6747C63.3464 68.6731 61.9803 68.1064 60.9728 67.0988C59.9652 66.0913 59.3985 64.7252 59.3969 63.3004H59.3989ZM56.1022 78.0079C56.1043 76.0343 56.8892 74.1421 58.2848 72.7465C59.6803 71.351 61.5725 70.566 63.5461 70.5639H66.0003C67.974 70.566 69.8661 71.351 71.2617 72.7465C72.6573 74.1421 73.4422 76.0343 73.4443 78.0079V81.8518H70.5202V77.8394C70.5261 77.7117 70.506 77.5841 70.4612 77.4644C70.4163 77.3447 70.3477 77.2353 70.2594 77.1429C70.1711 77.0505 70.065 76.9769 69.9475 76.9267C69.8299 76.8764 69.7034 76.8505 69.5756 76.8505C69.4478 76.8505 69.3213 76.8764 69.2038 76.9267C69.0863 76.9769 68.9801 77.0505 68.8918 77.1429C68.8036 77.2353 68.7349 77.3447 68.6901 77.4644C68.6452 77.5841 68.6252 77.7117 68.631 77.8394V81.8617H60.8996V77.8394C60.9055 77.7117 60.8854 77.5841 60.8405 77.4644C60.7957 77.3447 60.7271 77.2353 60.6388 77.1429C60.5505 77.0505 60.4444 76.9769 60.3268 76.9267C60.2093 76.8764 60.0828 76.8505 59.955 76.8505C59.8272 76.8505 59.7007 76.8764 59.5831 76.9267C59.4656 76.9769 59.3595 77.0505 59.2712 77.1429C59.1829 77.2353 59.1143 77.3447 59.0694 77.4644C59.0246 77.5841 59.0045 77.7117 59.0104 77.8394V81.8617H56.1002L56.1022 78.0079ZM90.8062 71.5829C90.8062 70.3129 91.1828 69.0715 91.8884 68.0155C92.5939 66.9596 93.5968 66.1366 94.7701 65.6506C95.9433 65.1646 97.2344 65.0375 98.48 65.2852C99.7255 65.533 100.87 66.1445 101.768 67.0425C102.666 67.9405 103.277 69.0846 103.525 70.3302C103.773 71.5758 103.646 72.8668 103.16 74.0401C102.674 75.2134 101.851 76.2162 100.795 76.9218C99.7387 77.6273 98.4972 78.0039 97.2273 78.0039C95.5246 78.0023 93.8921 77.3254 92.688 76.1216C91.4838 74.9178 90.8064 73.2855 90.8043 71.5829H90.8062Z" fill="black" fill-opacity="0.8"/>
<path d="M46.2973 51.6839C46.3913 51.6838 46.4848 51.6698 46.5748 51.6423L55.8664 48.7896C58.6309 49.8683 61.5738 50.4171 64.5414 50.4072C65.257 50.4072 65.9648 50.3755 66.6586 50.316C68.9364 53.1806 73.0281 54.941 77.4964 54.941C79.1249 54.9465 80.7449 54.7066 82.3018 54.2293L87.7118 56.2474C87.8767 56.3086 88.0553 56.3227 88.2277 56.2879C88.4001 56.2532 88.5594 56.1711 88.6877 56.0508C88.816 55.9306 88.9082 55.7769 88.954 55.6071C88.9998 55.4373 88.9973 55.2581 88.9468 55.0897L87.7217 51.0158C89.2858 49.3902 90.1422 47.4058 90.1422 45.3719C90.1422 41.756 87.4561 38.4632 83.2454 36.8475C83.2613 36.6057 83.2692 36.3618 83.2692 36.116C83.2692 28.232 74.8678 21.8169 64.5414 21.8169C54.215 21.8169 45.8155 28.232 45.8155 36.116C45.8155 39.1233 47.005 41.9701 49.257 44.3906L45.5023 50.2268C45.4106 50.3695 45.3589 50.5342 45.3527 50.7037C45.3465 50.8732 45.386 51.0413 45.4671 51.1903C45.5482 51.3393 45.6678 51.4637 45.8135 51.5506C45.9593 51.6374 46.1256 51.6835 46.2953 51.6839H46.2973ZM88.253 45.3719C88.253 47.0748 87.4779 48.6924 86.0109 50.0484C85.8806 50.1683 85.7868 50.3224 85.7402 50.4932C85.6936 50.664 85.696 50.8444 85.7472 51.0138L86.5878 53.811L82.6547 52.344C82.4523 52.2669 82.2294 52.2627 82.0243 52.3321C80.5642 52.8177 79.0351 53.0634 77.4964 53.0597C74.0847 53.0597 70.9545 51.9218 68.9364 50.0187C76.0453 48.7083 81.5842 44.2954 82.9461 38.7685C86.1992 40.1344 88.253 42.656 88.253 45.3719ZM51.2533 44.7772C51.3718 44.5939 51.4232 44.3752 51.3986 44.1583C51.374 43.9415 51.275 43.7398 51.1185 43.5877C48.8843 41.4071 47.7048 38.8299 47.7048 36.1121C47.7048 29.2688 55.2578 23.7041 64.5414 23.7041C73.825 23.7041 81.38 29.2708 81.38 36.1101C81.38 42.9494 73.827 48.518 64.5414 48.518C61.7073 48.5304 58.8985 47.9854 56.2747 46.9142C56.0715 46.8296 55.8451 46.8183 55.6344 46.8825L48.4977 49.077L51.2533 44.7772Z" fill="black" fill-opacity="0.8"/>
<path d="M55.2874 33.6837H73.7972C74.048 33.6837 74.2885 33.5841 74.4658 33.4067C74.6432 33.2294 74.7428 32.9889 74.7428 32.7381C74.7428 32.4873 74.6432 32.2468 74.4658 32.0694C74.2885 31.8921 74.048 31.7925 73.7972 31.7925H55.2874C55.0366 31.7925 54.7961 31.8921 54.6188 32.0694C54.4414 32.2468 54.3418 32.4873 54.3418 32.7381C54.3418 32.9889 54.4414 33.2294 54.6188 33.4067C54.7961 33.5841 55.0366 33.6837 55.2874 33.6837Z" fill="black" fill-opacity="0.8"/>
<path d="M74.7426 39.4798C74.7421 39.2293 74.6422 38.9893 74.465 38.8124C74.2877 38.6355 74.0475 38.5361 73.797 38.5361H55.2872C55.1595 38.5303 55.032 38.5504 54.9123 38.5952C54.7926 38.6401 54.6832 38.7087 54.5908 38.797C54.4984 38.8853 54.4248 38.9914 54.3745 39.1089C54.3243 39.2264 54.2983 39.3529 54.2983 39.4808C54.2983 39.6086 54.3243 39.7351 54.3745 39.8526C54.4248 39.9701 54.4984 40.0763 54.5908 40.1645C54.6832 40.2528 54.7926 40.3215 54.9123 40.3663C55.032 40.4111 55.1595 40.4312 55.2872 40.4254H73.797C73.9212 40.4254 74.0441 40.4009 74.1589 40.3534C74.2736 40.3059 74.3778 40.2362 74.4656 40.1484C74.5535 40.0606 74.6231 39.9564 74.6706 39.8416C74.7182 39.7269 74.7426 39.604 74.7426 39.4798Z" fill="black" fill-opacity="0.8"/>
</svg>
